<?xml version="1.0" standalone="no"?>
<!DOCTYPE svg PUBLIC "-//W3C//DTD SVG 20010904//EN"
 "http://www.w3.org/TR/2001/REC-SVG-20010904/DTD/svg10.dtd">
<svg version="1.0" xmlns="http://www.w3.org/2000/svg"
 width="2000.000000pt" height="2000.000000pt" viewBox="0 0 2000.000000 2000.000000"
 preserveAspectRatio="xMidYMid meet">

<g transform="translate(0.000000,2000.000000) scale(0.100000,-0.100000)"
fill="#000000" stroke="none">
<path d="M9590 15253 c-105 -6 -336 -34 -495 -59 -917 -147 -1782 -553 -2490
-1171 -902 -787 -1483 -1842 -1671 -3033 -13 -85 -27 -199 -31 -252 l-6 -98
-161 -2 -161 -3 3 -175 c14 -780 177 -1499 498 -2194 575 -1246 1664 -2249
2970 -2735 657 -244 1289 -352 1984 -338 504 10 915 72 1401 212 572 165 1151
450 1651 813 723 525 1271 1178 1659 1976 229 473 378 942 468 1476 46 271 62
443 68 723 l6 259 -169 -4 -168 -3 -27 200 c-78 583 -229 1084 -479 1590 -602
1222 -1654 2139 -2945 2570 -382 127 -808 212 -1234 245 -122 9 -534 11 -671
3z m845 -302 c582 -70 1057 -209 1560 -456 475 -234 850 -500 1234 -878 771
-759 1255 -1733 1385 -2792 9 -71 19 -142 22 -157 l6 -28 -176 0 c-174 0 -176
0 -181 23 -3 12 -14 87 -25 167 -68 481 -199 905 -411 1335 -559 1133 -1580
1969 -2799 2294 -172 46 -383 87 -585 113 -160 20 -220 23 -535 23 -308 -1
-378 -4 -525 -23 -690 -90 -1280 -307 -1875 -690 -231 -149 -452 -331 -695
-576 -271 -271 -466 -520 -652 -831 -333 -554 -522 -1121 -599 -1792 l-5 -43
-200 0 -199 0 0 34 c0 111 64 488 121 716 287 1136 996 2138 1979 2794 203
136 331 209 575 327 481 234 988 379 1526 439 261 28 253 28 584 25 226 -2
342 -8 470 -24z m-50 -486 c852 -92 1640 -431 2300 -990 675 -573 1160 -1349
1374 -2200 48 -191 111 -545 111 -622 0 -11 -725 -13 -4236 -13 l-4237 0 6 88
c4 48 18 150 31 227 132 746 445 1417 937 2010 118 141 402 423 549 543 704
577 1520 904 2430 972 157 12 564 4 735 -15z m-3327 -4719 c163 -44 228 -138
244 -355 12 -159 -3 -302 -39 -383 l-25 -56 36 -53 c20 -30 36 -57 36 -61 0
-5 -123 -7 -272 -5 -323 4 -341 8 -429 96 -81 81 -91 117 -97 330 -2 112 0
196 8 235 35 180 157 265 380 266 59 0 128 -6 158 -14z m4364 -15 c32 -12 78
-41 104 -65 l47 -42 -33 -104 c-17 -58 -34 -107 -36 -109 -2 -2 -26 16 -52 42
-74 69 -124 91 -207 91 -117 1 -193 -47 -150 -94 24 -27 66 -39 175 -49 52 -6
115 -17 140 -25 64 -23 139 -83 175 -140 26 -43 30 -59 30 -120 0 -83 -20
-131 -77 -188 -127 -127 -387 -146 -549 -38 -88 58 -88 55 -49 175 19 58 36
105 38 105 2 0 26 -20 53 -44 70 -63 128 -88 202 -89 106 -1 176 36 163 86 -8
35 -66 57 -175 67 -195 17 -318 98 -352 233 -33 131 58 264 216 317 84 28 254
23 337 -9z m1716 18 c68 -14 149 -65 189 -117 46 -61 63 -128 70 -277 16 -371
-82 -510 -371 -523 -170 -7 -275 25 -350 108 -59 66 -77 117 -88 254 -32 404
80 565 394 566 59 0 129 -5 156 -11z m-6920 -35 c95 -47 146 -134 146 -249 0
-56 -6 -80 -26 -121 l-27 -51 30 -58 c72 -143 11 -313 -136 -381 -49 -23 -58
-24 -327 -24 l-278 0 0 455 0 455 283 0 283 0 52 -26z m2042 21 c0 -3 -99
-154 -221 -336 -121 -182 -223 -337 -226 -345 -4 -12 27 -14 201 -14 l206 0 0
-105 0 -105 -411 0 c-326 0 -409 3 -402 13 4 6 108 161 230 344 123 182 223
334 223 337 0 3 -92 6 -205 6 l-205 0 0 105 0 105 405 0 c223 0 405 -2 405 -5z
m820 -100 l0 -105 -265 0 -265 0 0 -95 0 -95 215 0 215 0 0 -105 0 -105 -215
0 -215 0 0 -45 0 -45 265 0 265 0 0 -105 0 -105 -375 0 -375 0 0 455 0 455
375 0 375 0 0 -105z m782 73 c159 -74 258 -255 230 -418 -6 -34 -22 -86 -36
-116 -29 -63 -114 -152 -174 -183 l-41 -21 25 -62 c13 -34 24 -65 24 -70 0 -4
-52 -8 -114 -8 l-115 0 -22 60 -22 60 -93 0 -94 0 0 -60 0 -60 -110 0 -110 0
0 456 0 455 298 -3 297 -3 57 -27z m2078 -198 l0 -231 143 3 142 3 3 228 2
227 110 0 110 0 0 -455 0 -455 -110 0 -110 0 0 120 0 120 -145 0 -145 0 0
-120 0 -120 -110 0 -110 0 0 455 0 455 110 0 110 0 0 -230z m2202 198 c162
-75 260 -258 229 -425 -25 -135 -111 -250 -231 -307 -63 -30 -70 -31 -227 -34
l-163 -4 0 -54 0 -54 -110 0 -110 0 0 456 0 455 278 -3 c277 -3 277 -3 334
-30z m128 -1568 c0 -16 -72 -156 -155 -300 -168 -293 -404 -615 -623 -852
l-54 -58 -3502 0 -3502 0 -50 53 c-180 185 -446 547 -598 811 -66 113 -176
331 -176 346 0 7 1406 10 4330 10 2943 0 4330 -3 4330 -10z m-4208 -1783 c2
-4 67 -15 145 -25 79 -10 145 -21 148 -23 2 -3 -44 -53 -103 -112 l-108 -108
24 -135 c14 -74 22 -137 19 -140 -2 -3 -58 24 -122 60 -65 36 -122 66 -128 66
-6 0 -64 -29 -130 -65 -66 -36 -122 -64 -124 -61 -3 3 6 67 19 143 l24 138
-98 107 c-112 121 -114 111 32 128 159 18 139 4 211 157 l64 136 62 -129 c34
-71 63 -132 65 -137z m-1172 23 c43 -85 39 -82 145 -95 95 -12 95 -10 17 -89
l-71 -71 19 -90 c10 -49 16 -92 14 -94 -3 -3 -44 15 -92 38 l-88 43 -83 -42
c-46 -22 -85 -39 -88 -36 -3 3 2 46 12 96 l18 92 -68 68 c-77 78 -81 70 49 89
37 6 70 11 71 13 1 2 21 40 44 86 23 45 46 80 52 77 5 -4 27 -42 49 -85z
m2175 9 c44 -89 49 -93 140 -103 106 -13 105 -10 29 -87 l-68 -69 18 -91 c9
-50 15 -93 13 -96 -3 -2 -43 15 -91 39 l-86 42 -86 -42 c-48 -24 -88 -41 -90
-39 -2 2 4 45 14 95 l19 90 -68 68 c-46 46 -65 71 -56 75 6 4 41 10 77 14 36
4 74 11 85 15 12 5 36 41 60 89 21 44 42 81 45 81 3 0 24 -37 45 -81z"/>
<path d="M8990 13571 c-63 -20 -115 -60 -153 -121 -22 -34 -269 -1151 -269
-1217 -1 -62 38 -149 82 -187 31 -25 111 -58 168 -69 l32 -6 0 68 0 69 -44 11
c-60 15 -96 58 -96 116 0 61 235 1118 256 1154 20 33 61 55 102 53 15 0 364
-75 777 -167 l749 -165 241 2 240 3 -42 23 c-49 26 -1920 443 -1981 441 -20 0
-48 -4 -62 -8z"/>
<path d="M9172 12960 c-100 -21 -175 -107 -193 -222 -6 -40 -9 -281 -7 -629 3
-505 5 -568 20 -601 29 -65 68 -107 126 -135 l57 -28 1010 3 c982 4 1011 4
1052 24 48 22 98 74 122 127 14 32 16 105 16 651 0 694 2 674 -77 745 -82 75
-1 70 -1098 72 -542 0 -1004 -3 -1028 -7z m566 -309 l2 -173 -47 42 c-58 52
-136 90 -184 90 -32 0 -40 -6 -85 -67 -89 -119 -116 -180 -91 -202 8 -6 49
-18 93 -27 43 -9 83 -20 89 -25 5 -5 -73 -9 -193 -9 l-202 0 0 241 0 242 36
33 36 34 271 -2 272 -3 3 -174z m1449 159 c49 -29 54 -65 51 -315 l-3 -220
-570 -2 c-481 -2 -567 0 -552 11 10 8 58 21 107 31 69 13 91 22 95 36 9 27
-24 94 -91 183 l-59 78 -46 -4 c-50 -5 -109 -36 -176 -94 l-43 -37 0 177 0
176 628 0 c604 0 628 -1 659 -20z m-1667 -698 c0 -4 -13 -41 -29 -82 -35 -93
-78 -257 -69 -266 4 -3 49 0 100 7 l93 14 7 63 c7 67 63 195 99 228 19 17 19
12 19 -290 l0 -307 -281 3 -281 3 -29 33 -29 32 0 285 0 285 200 0 c110 0 200
-3 200 -8z m1718 -257 c3 -293 -1 -325 -51 -355 -31 -19 -55 -20 -659 -20
l-628 0 0 306 c0 237 3 305 12 302 23 -8 89 -146 104 -220 8 -40 18 -76 22
-79 8 -7 139 -29 171 -29 19 0 19 2 5 63 -8 34 -31 107 -50 162 -19 55 -38
108 -41 118 -5 16 24 17 553 15 l559 -3 3 -260z"/>
<path d="M6810 9537 c-34 -9 -49 -20 -64 -47 -18 -31 -20 -52 -20 -195 1 -219
9 -233 152 -251 64 -8 65 -2 12 76 -65 96 -69 90 69 90 l121 0 6 26 c4 15 4
74 1 132 -5 82 -10 112 -25 132 -22 29 -84 48 -157 48 -27 0 -70 -5 -95 -11z"/>
<path d="M12905 9541 c-89 -23 -98 -49 -93 -268 3 -159 4 -163 28 -188 30 -30
129 -50 195 -40 131 20 139 35 139 250 -1 92 -6 171 -12 187 -6 15 -26 34 -43
44 -36 18 -167 28 -214 15z"/>
<path d="M5820 9460 l0 -70 140 0 c136 0 142 1 165 25 30 29 32 68 5 95 -18
18 -33 20 -165 20 l-145 0 0 -70z"/>
<path d="M5820 9109 l0 -70 150 3 c124 2 152 6 166 20 25 25 22 77 -5 100 -20
16 -42 18 -167 18 l-144 0 0 -71z"/>
<path d="M9430 9345 l0 -185 133 0 c72 0 150 5 172 11 136 37 186 185 97 291
-48 56 -89 68 -254 68 l-148 0 0 -185z"/>
<path d="M13752 9343 l3 -188 90 -3 c121 -4 187 5 227 31 124 84 109 266 -27
328 -32 15 -65 19 -168 19 l-127 0 2 -187z"/>
<path d="M6670 7705 l0 -35 225 0 225 0 0 35 0 35 -225 0 -225 0 0 -35z"/>
<path d="M12750 7705 l0 -35 225 0 225 0 0 35 0 35 -225 0 -225 0 0 -35z"/>
<path d="M7797 7652 l-27 -28 0 -200 c0 -262 -17 -244 221 -244 227 0 219 -6
219 168 l0 122 -110 0 -110 0 0 -50 0 -50 65 0 65 0 0 -45 0 -45 -125 0 -125
0 0 150 0 150 125 0 125 0 0 -25 c0 -23 4 -25 45 -25 l45 0 0 53 c0 43 -5 58
-23 75 -22 21 -33 22 -193 22 l-170 0 -27 -28z"/>
<path d="M8290 7430 l0 -250 45 0 45 0 0 250 0 250 -45 0 -45 0 0 -250z"/>
<path d="M8460 7430 l0 -250 50 0 50 0 0 100 0 100 145 0 145 0 0 50 0 50
-145 0 -145 0 0 50 0 50 160 0 160 0 0 50 0 50 -210 0 -210 0 0 -250z"/>
<path d="M8910 7630 l0 -50 90 0 90 0 0 -200 0 -200 45 0 45 0 0 200 0 200 91
0 90 0 -3 48 -3 47 -222 3 -223 2 0 -50z"/>
<path d="M9722 7657 c-21 -22 -22 -32 -22 -228 0 -268 -16 -249 216 -249 l170
0 28 29 c23 24 27 36 24 72 l-3 44 -47 3 c-46 3 -48 2 -48 -22 l0 -26 -125 0
-125 0 0 150 0 150 125 0 125 0 0 -25 c0 -23 3 -25 50 -25 l50 0 0 48 c0 40
-5 53 -28 75 l-28 27 -170 0 c-165 0 -171 -1 -192 -23z"/>
<path d="M10272 7607 l-72 -72 0 -178 0 -177 45 0 45 0 0 75 0 75 130 0 130 0
0 -75 0 -75 45 0 45 0 0 250 0 250 -148 0 -148 0 -72 -73z m278 -102 l0 -75
-130 0 c-128 0 -130 0 -130 22 0 14 21 43 52 75 l52 53 78 0 78 0 0 -75z"/>
<path d="M10720 7430 l0 -250 45 0 45 0 0 75 0 75 78 0 78 0 46 -47 c26 -27
50 -60 53 -75 7 -25 11 -28 51 -28 l44 0 0 48 c0 36 -5 54 -20 67 -11 10 -20
26 -20 35 0 9 9 25 20 35 18 16 20 31 20 140 0 120 0 122 -28 148 l-28 27
-192 0 -192 0 0 -250z m348 73 l3 -73 -131 0 -130 0 0 75 0 76 128 -3 127 -3
3 -72z"/>
<path d="M11240 7430 l0 -250 192 0 192 0 28 27 28 27 0 146 0 145 -78 78 -77
77 -143 0 -142 0 0 -250z m292 103 l48 -47 0 -103 0 -103 -125 0 -125 0 0 150
0 150 77 0 77 0 48 -47z"/>
<path d="M11772 7657 c-20 -21 -22 -34 -22 -134 0 -90 3 -113 16 -124 12 -10
62 -15 173 -19 l156 -5 3 -47 3 -48 -130 0 -131 0 0 25 c0 23 -4 25 -45 25
l-45 0 0 -53 c0 -43 5 -58 23 -75 22 -21 32 -22 199 -22 l177 0 20 26 c18 23
21 41 21 122 0 90 -2 98 -27 124 l-27 28 -148 0 -148 0 0 50 0 51 128 -3 c123
-3 127 -4 130 -25 3 -20 9 -23 48 -23 l44 0 0 48 c0 40 -5 53 -28 75 l-28 27
-170 0 c-165 0 -171 -1 -192 -23z"/>
<path d="M6440 7535 l0 -35 340 0 340 0 0 35 0 35 -340 0 -340 0 0 -35z"/>
<path d="M12750 7535 l0 -35 345 0 345 0 0 35 0 35 -345 0 -345 0 0 -35z"/>
<path d="M6230 7355 l0 -35 445 0 445 0 0 35 0 35 -445 0 -445 0 0 -35z"/>
<path d="M12750 7355 l0 -35 445 0 445 0 0 35 0 35 -445 0 -445 0 0 -35z"/>
</g>
</svg>
