<?xml version="1.0" standalone="no"?>
<!DOCTYPE svg PUBLIC "-//W3C//DTD SVG 1.0//EN" "http://www.w3.org/TR/2001/REC-SVG-20010904/DTD/svg10.dtd">
<svg xmlns="http://www.w3.org/2000/svg" xmlns:xlink="http://www.w3.org/1999/xlink" id="body_1" width="2667" height="2667">

<g transform="matrix(1.3335 0 0 1.3335 0 0)">
	<g transform="matrix(0.1 0 -0 -0.1 0 2000)">
        <path d="M9590 15253C 9485 15247 9254 15219 9095 15194C 8178 15047 7313 14641 6605 14023C 5703 13236 5122 12181 4934 10990C 4921 10905 4907 10791 4903 10738L4903 10738L4897 10640L4736 10638L4575 10635L4578 10460C 4592 9680 4755 8961 5076 8266C 5651 7020 6740 6017 8046 5531C 8703 5287 9335 5179 10030 5193C 10534 5203 10945 5265 11431 5405C 12003 5570 12582 5855 13082 6218C 13805 6743 14353 7396 14741 8194C 14970 8667 15119 9136 15209 9670C 15255 9941 15271 10113 15277 10393L15277 10393L15283 10652L15114 10648L14946 10645L14919 10845C 14841 11428 14690 11929 14440 12435C 13838 13657 12786 14574 11495 15005C 11113 15132 10687 15217 10261 15250C 10139 15259 9727 15261 9590 15253zM10435 14951C 11017 14881 11492 14742 11995 14495C 12470 14261 12845 13995 13229 13617C 14000 12858 14484 11884 14614 10825C 14623 10754 14633 10683 14636 10668L14636 10668L14642 10640L14466 10640C 14292 10640 14290 10640 14285 10663C 14282 10675 14271 10750 14260 10830C 14192 11311 14061 11735 13849 12165C 13290 13298 12269 14134 11050 14459C 10878 14505 10667 14546 10465 14572C 10305 14592 10245 14595 9930 14595C 9622 14594 9552 14591 9405 14572C 8715 14482 8125 14265 7530 13882C 7299 13733 7078 13551 6835 13306C 6564 13035 6369 12786 6183 12475C 5850 11921 5661 11354 5584 10683L5584 10683L5579 10640L5379 10640L5180 10640L5180 10674C 5180 10785 5244 11162 5301 11390C 5588 12526 6297 13528 7280 14184C 7483 14320 7611 14393 7855 14511C 8336 14745 8843 14890 9381 14950C 9642 14978 9634 14978 9965 14975C 10191 14973 10307 14967 10435 14951zM10385 14465C 11237 14373 12025 14034 12685 13475C 13360 12902 13845 12126 14059 11275C 14107 11084 14170 10730 14170 10653C 14170 10642 13445 10640 9934 10640L9934 10640L5697 10640L5703 10728C 5707 10776 5721 10878 5734 10955C 5866 11701 6179 12372 6671 12965C 6789 13106 7073 13388 7220 13508C 7924 14085 8740 14412 9650 14480C 9807 14492 10214 14484 10385 14465zM7058 9746C 7221 9702 7286 9608 7302 9391C 7314 9232 7299 9089 7263 9008L7263 9008L7238 8952L7274 8899C 7294 8869 7310 8842 7310 8838C 7310 8833 7187 8831 7038 8833C 6715 8837 6697 8841 6609 8929C 6528 9010 6518 9046 6512 9259C 6510 9371 6512 9455 6520 9494C 6555 9674 6677 9759 6900 9760C 6959 9760 7028 9754 7058 9746zM11422 9731C 11454 9719 11500 9690 11526 9666L11526 9666L11573 9624L11540 9520C 11523 9462 11506 9413 11504 9411C 11502 9409 11478 9427 11452 9453C 11378 9522 11328 9544 11245 9544C 11128 9545 11052 9497 11095 9450C 11119 9423 11161 9411 11270 9401C 11322 9395 11385 9384 11410 9376C 11474 9353 11549 9293 11585 9236C 11611 9193 11615 9177 11615 9116C 11615 9033 11595 8985 11538 8928C 11411 8801 11151 8782 10989 8890C 10901 8948 10901 8945 10940 9065C 10959 9123 10976 9170 10978 9170C 10980 9170 11004 9150 11031 9126C 11101 9063 11159 9038 11233 9037C 11339 9036 11409 9073 11396 9123C 11388 9158 11330 9180 11221 9190C 11026 9207 10903 9288 10869 9423C 10836 9554 10927 9687 11085 9740C 11169 9768 11339 9763 11422 9731zM13138 9749C 13206 9735 13287 9684 13327 9632C 13373 9571 13390 9504 13397 9355C 13413 8984 13315 8845 13026 8832C 12856 8825 12751 8857 12676 8940C 12617 9006 12599 9057 12588 9194C 12556 9598 12668 9759 12982 9760C 13041 9760 13111 9755 13138 9749zM6218 9714C 6313 9667 6364 9580 6364 9465C 6364 9409 6358 9385 6338 9344L6338 9344L6311 9293L6341 9235C 6413 9092 6352 8922 6205 8854C 6156 8831 6147 8830 5878 8830L5878 8830L5600 8830L5600 9285L5600 9740L5883 9740L6166 9740L6218 9714zM8260 9735C 8260 9732 8161 9581 8039 9399C 7918 9217 7816 9062 7813 9054C 7809 9042 7840 9040 8014 9040L8014 9040L8220 9040L8220 8935L8220 8830L7809 8830C 7483 8830 7400 8833 7407 8843C 7411 8849 7515 9004 7637 9187C 7760 9369 7860 9521 7860 9524C 7860 9527 7768 9530 7655 9530L7655 9530L7450 9530L7450 9635L7450 9740L7855 9740C 8078 9740 8260 9738 8260 9735zM9080 9635L9080 9530L8815 9530L8550 9530L8550 9435L8550 9340L8765 9340L8980 9340L8980 9235L8980 9130L8765 9130L8550 9130L8550 9085L8550 9040L8815 9040L9080 9040L9080 8935L9080 8830L8705 8830L8330 8830L8330 9285L8330 9740L8705 9740L9080 9740L9080 9635zM9862 9708C 10021 9634 10120 9453 10092 9290C 10086 9256 10070 9204 10056 9174C 10027 9111 9942 9022 9882 8991L9882 8991L9841 8970L9866 8908C 9879 8874 9890 8843 9890 8838C 9890 8834 9838 8830 9776 8830L9776 8830L9661 8830L9639 8890L9617 8950L9524 8950L9430 8950L9430 8890L9430 8830L9320 8830L9210 8830L9210 9286L9210 9741L9508 9738L9805 9735L9862 9708zM11940 9510L11940 9279L12083 9282L12225 9285L12228 9513L12230 9740L12340 9740L12450 9740L12450 9285L12450 8830L12340 8830L12230 8830L12230 8950L12230 9070L12085 9070L11940 9070L11940 8950L11940 8830L11830 8830L11720 8830L11720 9285L11720 9740L11830 9740L11940 9740L11940 9510zM14142 9708C 14304 9633 14402 9450 14371 9283C 14346 9148 14260 9033 14140 8976C 14077 8946 14070 8945 13913 8942L13913 8942L13750 8938L13750 8884L13750 8830L13640 8830L13530 8830L13530 9286L13530 9741L13808 9738C 14085 9735 14085 9735 14142 9708zM14270 8140C 14270 8124 14198 7984 14115 7840C 13947 7547 13711 7225 13492 6988L13492 6988L13438 6930L9936 6930L6434 6930L6384 6983C 6204 7168 5938 7530 5786 7794C 5720 7907 5610 8125 5610 8140C 5610 8147 7016 8150 9940 8150C 12883 8150 14270 8147 14270 8140zM10062 6357C 10064 6353 10129 6342 10207 6332C 10286 6322 10352 6311 10355 6309C 10357 6306 10311 6256 10252 6197L10252 6197L10144 6089L10168 5954C 10182 5880 10190 5817 10187 5814C 10185 5811 10129 5838 10065 5874C 10000 5910 9943 5940 9937 5940C 9931 5940 9873 5911 9807 5875C 9741 5839 9685 5811 9683 5814C 9680 5817 9689 5881 9702 5957L9702 5957L9726 6095L9628 6202C 9516 6323 9514 6313 9660 6330C 9819 6348 9799 6334 9871 6487L9871 6487L9935 6623L9997 6494C 10031 6423 10060 6362 10062 6357zM8890 6380C 8933 6295 8929 6298 9035 6285C 9130 6273 9130 6275 9052 6196L9052 6196L8981 6125L9000 6035C 9010 5986 9016 5943 9014 5941C 9011 5938 8970 5956 8922 5979L8922 5979L8834 6022L8751 5980C 8705 5958 8666 5941 8663 5944C 8660 5947 8665 5990 8675 6040L8675 6040L8693 6132L8625 6200C 8548 6278 8544 6270 8674 6289C 8711 6295 8744 6300 8745 6302C 8746 6304 8766 6342 8789 6388C 8812 6433 8835 6468 8841 6465C 8846 6461 8868 6423 8890 6380zM11065 6389C 11109 6300 11114 6296 11205 6286C 11311 6273 11310 6276 11234 6199L11234 6199L11166 6130L11184 6039C 11193 5989 11199 5946 11197 5943C 11194 5941 11154 5958 11106 5982L11106 5982L11020 6024L10934 5982C 10886 5958 10846 5941 10844 5943C 10842 5945 10848 5988 10858 6038L10858 6038L10877 6128L10809 6196C 10763 6242 10744 6267 10753 6271C 10759 6275 10794 6281 10830 6285C 10866 6289 10904 6296 10915 6300C 10927 6305 10951 6341 10975 6389C 10996 6433 11017 6470 11020 6470C 11023 6470 11044 6433 11065 6389z" stroke="none" fill="#000000" fill-rule="nonzero" />
        <path d="M8990 13571C 8927 13551 8875 13511 8837 13450C 8815 13416 8568 12299 8568 12233C 8567 12171 8606 12084 8650 12046C 8681 12021 8761 11988 8818 11977L8818 11977L8850 11971L8850 12039L8850 12108L8806 12119C 8746 12134 8710 12177 8710 12235C 8710 12296 8945 13353 8966 13389C 8986 13422 9027 13444 9068 13442C 9083 13442 9432 13367 9845 13275L9845 13275L10594 13110L10835 13112L11075 13115L11033 13138C 10984 13164 9113 13581 9052 13579C 9032 13579 9004 13575 8990 13571z" stroke="none" fill="#000000" fill-rule="nonzero" />
        <path d="M9172 12960C 9072 12939 8997 12853 8979 12738C 8973 12698 8970 12457 8972 12109C 8975 11604 8977 11541 8992 11508C 9021 11443 9060 11401 9118 11373L9118 11373L9175 11345L10185 11348C 11167 11352 11196 11352 11237 11372C 11285 11394 11335 11446 11359 11499C 11373 11531 11375 11604 11375 12150C 11375 12844 11377 12824 11298 12895C 11216 12970 11297 12965 10200 12967C 9658 12967 9196 12964 9172 12960zM9738 12651L9740 12478L9693 12520C 9635 12572 9557 12610 9509 12610C 9477 12610 9469 12604 9424 12543C 9335 12424 9308 12363 9333 12341C 9341 12335 9382 12323 9426 12314C 9469 12305 9509 12294 9515 12289C 9520 12284 9442 12280 9322 12280L9322 12280L9120 12280L9120 12521L9120 12763L9156 12796L9192 12830L9463 12828L9735 12825L9738 12651zM11187 12810C 11236 12781 11241 12745 11238 12495L11238 12495L11235 12275L10665 12273C 10184 12271 10098 12273 10113 12284C 10123 12292 10171 12305 10220 12315C 10289 12328 10311 12337 10315 12351C 10324 12378 10291 12445 10224 12534L10224 12534L10165 12612L10119 12608C 10069 12603 10010 12572 9943 12514L9943 12514L9900 12477L9900 12654L9900 12830L10528 12830C 11132 12830 11156 12829 11187 12810zM9520 12112C 9520 12108 9507 12071 9491 12030C 9456 11937 9413 11773 9422 11764C 9426 11761 9471 11764 9522 11771L9522 11771L9615 11785L9622 11848C 9629 11915 9685 12043 9721 12076C 9740 12093 9740 12088 9740 11786L9740 11786L9740 11479L9459 11482L9178 11485L9149 11518L9120 11550L9120 11835L9120 12120L9320 12120C 9430 12120 9520 12117 9520 12112zM11238 11855C 11241 11562 11237 11530 11187 11500C 11156 11481 11132 11480 10528 11480L10528 11480L9900 11480L9900 11786C 9900 12023 9903 12091 9912 12088C 9935 12080 10001 11942 10016 11868C 10024 11828 10034 11792 10038 11789C 10046 11782 10177 11760 10209 11760C 10228 11760 10228 11762 10214 11823C 10206 11857 10183 11930 10164 11985C 10145 12040 10126 12093 10123 12103C 10118 12119 10147 12120 10676 12118L10676 12118L11235 12115L11238 11855z" stroke="none" fill="#000000" fill-rule="nonzero" />
        <path d="M6810 9537C 6776 9528 6761 9517 6746 9490C 6728 9459 6726 9438 6726 9295C 6727 9076 6735 9062 6878 9044C 6942 9036 6943 9042 6890 9120C 6825 9216 6821 9210 6959 9210L6959 9210L7080 9210L7086 9236C 7090 9251 7090 9310 7087 9368C 7082 9450 7077 9480 7062 9500C 7040 9529 6978 9548 6905 9548C 6878 9548 6835 9543 6810 9537z" stroke="none" fill="#000000" fill-rule="nonzero" />
        <path d="M12905 9541C 12816 9518 12807 9492 12812 9273C 12815 9114 12816 9110 12840 9085C 12870 9055 12969 9035 13035 9045C 13166 9065 13174 9080 13174 9295C 13173 9387 13168 9466 13162 9482C 13156 9497 13136 9516 13119 9526C 13083 9544 12952 9554 12905 9541z" stroke="none" fill="#000000" fill-rule="nonzero" />
        <path d="M5820 9460L5820 9390L5960 9390C 6096 9390 6102 9391 6125 9415C 6155 9444 6157 9483 6130 9510C 6112 9528 6097 9530 5965 9530L5965 9530L5820 9530L5820 9460z" stroke="none" fill="#000000" fill-rule="nonzero" />
        <path d="M5820 9109L5820 9039L5970 9042C 6094 9044 6122 9048 6136 9062C 6161 9087 6158 9139 6131 9162C 6111 9178 6089 9180 5964 9180L5964 9180L5820 9180L5820 9109z" stroke="none" fill="#000000" fill-rule="nonzero" />
        <path d="M9430 9345L9430 9160L9563 9160C 9635 9160 9713 9165 9735 9171C 9871 9208 9921 9356 9832 9462C 9784 9518 9743 9530 9578 9530L9578 9530L9430 9530L9430 9345z" stroke="none" fill="#000000" fill-rule="nonzero" />
        <path d="M13752 9343L13755 9155L13845 9152C 13966 9148 14032 9157 14072 9183C 14196 9267 14181 9449 14045 9511C 14013 9526 13980 9530 13877 9530L13877 9530L13750 9530L13752 9343z" stroke="none" fill="#000000" fill-rule="nonzero" />
        <path d="M6670 7705L6670 7670L6895 7670L7120 7670L7120 7705L7120 7740L6895 7740L6670 7740L6670 7705z" stroke="none" fill="#000000" fill-rule="nonzero" />
        <path d="M12750 7705L12750 7670L12975 7670L13200 7670L13200 7705L13200 7740L12975 7740L12750 7740L12750 7705z" stroke="none" fill="#000000" fill-rule="nonzero" />
        <path d="M7797 7652L7770 7624L7770 7424C 7770 7162 7753 7180 7991 7180C 8218 7180 8210 7174 8210 7348L8210 7348L8210 7470L8100 7470L7990 7470L7990 7420L7990 7370L8055 7370L8120 7370L8120 7325L8120 7280L7995 7280L7870 7280L7870 7430L7870 7580L7995 7580L8120 7580L8120 7555C 8120 7532 8124 7530 8165 7530L8165 7530L8210 7530L8210 7583C 8210 7626 8205 7641 8187 7658C 8165 7679 8154 7680 7994 7680L7994 7680L7824 7680L7797 7652z" stroke="none" fill="#000000" fill-rule="nonzero" />
        <path d="M8290 7430L8290 7180L8335 7180L8380 7180L8380 7430L8380 7680L8335 7680L8290 7680L8290 7430z" stroke="none" fill="#000000" fill-rule="nonzero" />
        <path d="M8460 7430L8460 7180L8510 7180L8560 7180L8560 7280L8560 7380L8705 7380L8850 7380L8850 7430L8850 7480L8705 7480L8560 7480L8560 7530L8560 7580L8720 7580L8880 7580L8880 7630L8880 7680L8670 7680L8460 7680L8460 7430z" stroke="none" fill="#000000" fill-rule="nonzero" />
        <path d="M8910 7630L8910 7580L9000 7580L9090 7580L9090 7380L9090 7180L9135 7180L9180 7180L9180 7380L9180 7580L9271 7580L9361 7580L9358 7628L9355 7675L9133 7678L8910 7680L8910 7630z" stroke="none" fill="#000000" fill-rule="nonzero" />
        <path d="M9722 7657C 9701 7635 9700 7625 9700 7429C 9700 7161 9684 7180 9916 7180L9916 7180L10086 7180L10114 7209C 10137 7233 10141 7245 10138 7281L10138 7281L10135 7325L10088 7328C 10042 7331 10040 7330 10040 7306L10040 7306L10040 7280L9915 7280L9790 7280L9790 7430L9790 7580L9915 7580L10040 7580L10040 7555C 10040 7532 10043 7530 10090 7530L10090 7530L10140 7530L10140 7578C 10140 7618 10135 7631 10112 7653L10112 7653L10084 7680L9914 7680C 9749 7680 9743 7679 9722 7657z" stroke="none" fill="#000000" fill-rule="nonzero" />
        <path d="M10272 7607L10200 7535L10200 7357L10200 7180L10245 7180L10290 7180L10290 7255L10290 7330L10420 7330L10550 7330L10550 7255L10550 7180L10595 7180L10640 7180L10640 7430L10640 7680L10492 7680L10344 7680L10272 7607zM10550 7505L10550 7430L10420 7430C 10292 7430 10290 7430 10290 7452C 10290 7466 10311 7495 10342 7527L10342 7527L10394 7580L10472 7580L10550 7580L10550 7505z" stroke="none" fill="#000000" fill-rule="nonzero" />
        <path d="M10720 7430L10720 7180L10765 7180L10810 7180L10810 7255L10810 7330L10888 7330L10966 7330L11012 7283C 11038 7256 11062 7223 11065 7208C 11072 7183 11076 7180 11116 7180L11116 7180L11160 7180L11160 7228C 11160 7264 11155 7282 11140 7295C 11129 7305 11120 7321 11120 7330C 11120 7339 11129 7355 11140 7365C 11158 7381 11160 7396 11160 7505C 11160 7625 11160 7627 11132 7653L11132 7653L11104 7680L10912 7680L10720 7680L10720 7430zM11068 7503L11071 7430L10940 7430L10810 7430L10810 7505L10810 7581L10938 7578L11065 7575L11068 7503z" stroke="none" fill="#000000" fill-rule="nonzero" />
        <path d="M11240 7430L11240 7180L11432 7180L11624 7180L11652 7207L11680 7234L11680 7380L11680 7525L11602 7603L11525 7680L11382 7680L11240 7680L11240 7430zM11532 7533L11580 7486L11580 7383L11580 7280L11455 7280L11330 7280L11330 7430L11330 7580L11407 7580L11484 7580L11532 7533z" stroke="none" fill="#000000" fill-rule="nonzero" />
        <path d="M11772 7657C 11752 7636 11750 7623 11750 7523C 11750 7433 11753 7410 11766 7399C 11778 7389 11828 7384 11939 7380L11939 7380L12095 7375L12098 7328L12101 7280L11971 7280L11840 7280L11840 7305C 11840 7328 11836 7330 11795 7330L11795 7330L11750 7330L11750 7277C 11750 7234 11755 7219 11773 7202C 11795 7181 11805 7180 11972 7180L11972 7180L12149 7180L12169 7206C 12187 7229 12190 7247 12190 7328C 12190 7418 12188 7426 12163 7452L12163 7452L12136 7480L11988 7480L11840 7480L11840 7530L11840 7581L11968 7578C 12091 7575 12095 7574 12098 7553C 12101 7533 12107 7530 12146 7530L12146 7530L12190 7530L12190 7578C 12190 7618 12185 7631 12162 7653L12162 7653L12134 7680L11964 7680C 11799 7680 11793 7679 11772 7657z" stroke="none" fill="#000000" fill-rule="nonzero" />
        <path d="M6440 7535L6440 7500L6780 7500L7120 7500L7120 7535L7120 7570L6780 7570L6440 7570L6440 7535z" stroke="none" fill="#000000" fill-rule="nonzero" />
        <path d="M12750 7535L12750 7500L13095 7500L13440 7500L13440 7535L13440 7570L13095 7570L12750 7570L12750 7535z" stroke="none" fill="#000000" fill-rule="nonzero" />
        <path d="M6230 7355L6230 7320L6675 7320L7120 7320L7120 7355L7120 7390L6675 7390L6230 7390L6230 7355z" stroke="none" fill="#000000" fill-rule="nonzero" />
        <path d="M12750 7355L12750 7320L13195 7320L13640 7320L13640 7355L13640 7390L13195 7390L12750 7390L12750 7355z" stroke="none" fill="#000000" fill-rule="nonzero" />
	</g>
</g>
</svg>