<?xml version="1.0" encoding="UTF-8"?>
<svg xmlns="http://www.w3.org/2000/svg" xmlns:xlink="http://www.w3.org/1999/xlink" width="200px" height="200px" viewBox="0 0 200 200" version="1.1">
<g id="surface1">
<path style=" stroke:none;fill-rule:evenodd;fill:rgb(94.901961%,90.980392%,93.72549%);fill-opacity:1;" d="M 67.503906 102.554688 C 67.203125 102.636719 66.753906 102.839844 66.503906 103 C 66.253906 103.160156 65.902344 103.507812 65.722656 103.773438 C 65.519531 104.078125 65.34375 104.515625 65.25 104.953125 C 65.160156 105.378906 65.101562 106.207031 65.101562 107.070312 C 65.101562 107.851562 65.152344 108.730469 65.210938 109.019531 C 65.273438 109.3125 65.429688 109.753906 65.554688 110 C 65.679688 110.246094 65.933594 110.589844 66.117188 110.765625 C 66.300781 110.9375 66.628906 111.167969 66.851562 111.277344 C 67.070312 111.386719 67.488281 111.527344 67.78125 111.585938 C 68.070312 111.648438 68.679688 111.699219 69.128906 111.699219 C 69.582031 111.695312 70.117188 111.65625 70.324219 111.609375 C 70.542969 111.558594 70.722656 111.558594 70.757812 111.609375 C 70.785156 111.660156 71.328125 111.699219 71.957031 111.699219 C 72.585938 111.699219 73.101562 111.664062 73.101562 111.625 C 73.101562 111.582031 72.941406 111.3125 72.75 111.027344 C 72.558594 110.742188 72.398438 110.476562 72.398438 110.433594 C 72.398438 110.394531 72.488281 110.175781 72.601562 109.949219 C 72.710938 109.722656 72.847656 109.273438 72.90625 108.953125 C 72.96875 108.621094 73 107.632812 72.980469 106.660156 C 72.945312 105.171875 72.910156 104.875 72.714844 104.375 C 72.578125 104.03125 72.308594 103.625 72.042969 103.359375 C 71.769531 103.085938 71.378906 102.828125 71.023438 102.691406 C 70.574219 102.519531 70.191406 102.460938 69.25 102.4375 C 68.390625 102.410156 67.894531 102.445312 67.503906 102.554688 M 111.175781 102.507812 C 110.96875 102.558594 110.574219 102.710938 110.304688 102.847656 C 110.03125 102.988281 109.652344 103.238281 109.460938 103.402344 C 109.269531 103.570312 109.015625 103.914062 108.894531 104.160156 C 108.742188 104.480469 108.675781 104.800781 108.675781 105.238281 C 108.675781 105.667969 108.738281 105.984375 108.882812 106.265625 C 108.996094 106.488281 109.320312 106.878906 109.601562 107.132812 C 109.886719 107.390625 110.355469 107.679688 110.675781 107.800781 C 110.992188 107.917969 111.667969 108.050781 112.21875 108.097656 C 112.808594 108.148438 113.347656 108.253906 113.574219 108.367188 C 113.847656 108.5 113.957031 108.621094 113.980469 108.8125 C 114.003906 109 113.9375 109.136719 113.75 109.28125 C 113.605469 109.394531 113.242188 109.539062 112.941406 109.601562 C 112.542969 109.683594 112.257812 109.6875 111.890625 109.609375 C 111.617188 109.546875 111.25 109.425781 111.078125 109.339844 C 110.910156 109.25 110.550781 108.976562 110.285156 108.726562 C 109.949219 108.410156 109.789062 108.316406 109.753906 108.414062 C 109.722656 108.488281 109.5625 108.953125 109.394531 109.449219 L 109.089844 110.351562 L 109.59375 110.816406 C 109.878906 111.082031 110.347656 111.382812 110.671875 111.511719 C 111.15625 111.703125 111.4375 111.742188 112.398438 111.742188 C 113.359375 111.742188 113.644531 111.703125 114.121094 111.515625 C 114.433594 111.390625 114.917969 111.082031 115.199219 110.832031 C 115.480469 110.578125 115.808594 110.1875 115.925781 109.960938 C 116.082031 109.664062 116.144531 109.371094 116.144531 108.898438 C 116.144531 108.460938 116.082031 108.121094 115.949219 107.851562 C 115.84375 107.636719 115.582031 107.28125 115.367188 107.070312 C 115.15625 106.855469 114.699219 106.550781 114.359375 106.390625 C 113.886719 106.167969 113.492188 106.074219 112.730469 106.003906 C 112.175781 105.949219 111.535156 105.832031 111.308594 105.742188 C 111.023438 105.628906 110.878906 105.5 110.835938 105.324219 C 110.785156 105.132812 110.828125 105.03125 111.011719 104.890625 C 111.140625 104.792969 111.4375 104.664062 111.667969 104.605469 C 111.898438 104.546875 112.242188 104.5 112.425781 104.5 C 112.613281 104.5 112.996094 104.570312 113.28125 104.652344 C 113.644531 104.761719 113.96875 104.96875 114.390625 105.355469 C 114.714844 105.660156 115.007812 105.867188 115.035156 105.820312 C 115.066406 105.773438 115.230469 105.296875 115.402344 104.757812 L 115.714844 103.78125 L 115.488281 103.539062 C 115.363281 103.40625 115.054688 103.164062 114.804688 103.003906 C 114.554688 102.84375 114.082031 102.640625 113.753906 102.554688 C 113.425781 102.46875 112.796875 102.40625 112.355469 102.410156 C 111.910156 102.414062 111.382812 102.460938 111.175781 102.507812 M 128.320312 102.550781 C 128.027344 102.632812 127.695312 102.75 127.582031 102.808594 C 127.464844 102.871094 127.171875 103.105469 126.925781 103.332031 C 126.683594 103.558594 126.402344 103.902344 126.300781 104.097656 C 126.199219 104.292969 126.066406 104.730469 126 105.0625 C 125.921875 105.445312 125.894531 106.3125 125.917969 107.410156 C 125.953125 109.078125 125.964844 109.175781 126.242188 109.78125 C 126.425781 110.179688 126.695312 110.554688 126.976562 110.800781 C 127.222656 111.015625 127.675781 111.289062 127.984375 111.410156 C 128.363281 111.554688 128.871094 111.640625 129.523438 111.675781 C 130.105469 111.707031 130.75 111.675781 131.121094 111.605469 C 131.464844 111.535156 131.949219 111.378906 132.203125 111.25 C 132.453125 111.121094 132.808594 110.867188 132.992188 110.683594 C 133.175781 110.5 133.433594 110.117188 133.566406 109.835938 C 133.730469 109.480469 133.839844 108.984375 133.917969 108.230469 C 134.003906 107.433594 134.003906 106.820312 133.925781 105.960938 C 133.835938 104.972656 133.769531 104.679688 133.503906 104.144531 C 133.328125 103.789062 133.027344 103.371094 132.820312 103.203125 C 132.617188 103.035156 132.203125 102.800781 131.898438 102.683594 C 131.46875 102.515625 131.078125 102.460938 130.101562 102.433594 C 129.210938 102.410156 128.699219 102.445312 128.320312 102.550781 M 56 107.15625 L 56 111.710938 L 58.875 111.679688 C 61.449219 111.652344 61.785156 111.628906 62.101562 111.464844 C 62.292969 111.363281 62.621094 111.113281 62.832031 110.914062 C 63.042969 110.714844 63.3125 110.371094 63.429688 110.148438 C 63.597656 109.839844 63.644531 109.574219 63.648438 108.945312 C 63.648438 108.261719 63.609375 108.0625 63.375 107.609375 L 63.097656 107.074219 L 63.363281 106.53125 C 63.570312 106.105469 63.628906 105.839844 63.628906 105.308594 C 63.628906 104.761719 63.574219 104.519531 63.339844 104.046875 C 63.15625 103.671875 62.894531 103.339844 62.621094 103.132812 C 62.386719 102.953125 62.027344 102.761719 61.824219 102.703125 C 61.609375 102.644531 60.292969 102.601562 58.726562 102.601562 L 56 102.601562 L 56 107.15625 M 74.5 103.648438 L 74.5 104.699219 L 76.5625 104.699219 C 78.238281 104.699219 78.613281 104.726562 78.570312 104.832031 C 78.542969 104.90625 77.546875 106.410156 76.359375 108.171875 C 75.171875 109.9375 74.171875 111.453125 74.140625 111.539062 C 74.085938 111.683594 74.457031 111.699219 78.140625 111.699219 L 82.199219 111.699219 L 82.199219 109.601562 L 80.148438 109.601562 C 78.738281 109.601562 78.101562 109.566406 78.101562 109.492188 C 78.101562 109.429688 79.113281 107.878906 80.351562 106.039062 C 81.585938 104.199219 82.601562 102.671875 82.601562 102.648438 C 82.601562 102.621094 80.777344 102.601562 78.550781 102.601562 L 74.5 102.601562 L 74.5 103.648438 M 83.324219 107.125 L 83.351562 111.648438 L 87.074219 111.675781 L 90.800781 111.703125 L 90.800781 109.601562 L 85.5 109.601562 L 85.5 108.699219 L 89.800781 108.699219 L 89.800781 106.601562 L 85.5 106.601562 L 85.5 104.699219 L 90.800781 104.699219 L 90.800781 102.601562 L 83.296875 102.601562 L 83.324219 107.125 M 92.125 107.125 L 92.148438 111.648438 L 93.226562 111.679688 L 94.300781 111.707031 L 94.300781 110.5 L 96.1875 110.5 L 96.40625 111.101562 L 96.625 111.699219 L 97.761719 111.699219 C 98.386719 111.699219 98.898438 111.679688 98.898438 111.652344 C 98.898438 111.625 98.785156 111.300781 98.644531 110.929688 C 98.503906 110.558594 98.429688 110.238281 98.480469 110.222656 C 98.53125 110.207031 98.8125 110.046875 99.109375 109.871094 C 99.441406 109.671875 99.824219 109.316406 100.105469 108.945312 C 100.355469 108.613281 100.644531 108.074219 100.75 107.746094 C 100.867188 107.375 100.9375 106.886719 100.929688 106.449219 C 100.921875 105.996094 100.84375 105.546875 100.703125 105.175781 C 100.582031 104.859375 100.308594 104.378906 100.097656 104.105469 C 99.882812 103.835938 99.5 103.472656 99.246094 103.296875 C 98.992188 103.121094 98.539062 102.894531 98.246094 102.789062 C 97.765625 102.621094 97.398438 102.601562 94.902344 102.601562 L 92.097656 102.601562 L 92.125 107.125 M 117.199219 107.148438 L 117.199219 111.699219 L 119.398438 111.699219 L 119.398438 109.300781 L 122.300781 109.300781 L 122.300781 111.707031 L 123.375 111.679688 L 124.449219 111.648438 L 124.503906 102.601562 L 122.304688 102.601562 L 122.25 107.148438 L 120.824219 107.175781 L 119.398438 107.207031 L 119.398438 102.601562 L 117.199219 102.601562 L 117.199219 107.148438 M 135.324219 107.121094 L 135.351562 111.648438 L 136.425781 111.679688 L 137.5 111.707031 L 137.5 110.617188 L 139.125 110.582031 C 140.644531 110.550781 140.789062 110.53125 141.324219 110.28125 C 141.640625 110.132812 142.148438 109.777344 142.453125 109.488281 C 142.78125 109.179688 143.125 108.722656 143.304688 108.359375 C 143.46875 108.023438 143.648438 107.480469 143.699219 107.148438 C 143.761719 106.765625 143.761719 106.335938 143.703125 105.964844 C 143.652344 105.648438 143.496094 105.140625 143.359375 104.839844 C 143.222656 104.542969 142.871094 104.058594 142.578125 103.765625 C 142.289062 103.476562 141.78125 103.105469 141.449219 102.945312 L 140.851562 102.648438 L 138.074219 102.621094 L 135.296875 102.589844 L 135.324219 107.121094 M 68.101562 104.597656 C 67.910156 104.644531 67.65625 104.796875 67.535156 104.9375 C 67.382812 105.117188 67.296875 105.390625 67.246094 105.863281 C 67.207031 106.230469 67.195312 107.011719 67.222656 107.597656 C 67.253906 108.273438 67.332031 108.769531 67.429688 108.960938 C 67.515625 109.125 67.695312 109.3125 67.835938 109.375 C 67.972656 109.4375 68.355469 109.519531 68.691406 109.558594 C 69.175781 109.613281 69.300781 109.597656 69.300781 109.488281 C 69.300781 109.410156 69.097656 109.046875 68.851562 108.675781 C 68.601562 108.308594 68.398438 107.980469 68.398438 107.949219 C 68.398438 107.914062 68.953125 107.898438 69.625 107.90625 L 70.851562 107.921875 L 70.847656 106.636719 C 70.84375 105.800781 70.800781 105.273438 70.71875 105.125 C 70.648438 105 70.480469 104.828125 70.347656 104.738281 C 70.1875 104.632812 69.816406 104.566406 69.277344 104.542969 C 68.820312 104.523438 68.292969 104.546875 68.101562 104.597656 M 128.90625 104.632812 C 128.570312 104.722656 128.410156 104.832031 128.265625 105.082031 C 128.097656 105.371094 128.074219 105.613281 128.074219 106.980469 C 128.074219 108.160156 128.113281 108.640625 128.226562 108.914062 C 128.34375 109.191406 128.472656 109.308594 128.765625 109.410156 C 128.976562 109.484375 129.535156 109.542969 130.003906 109.542969 C 130.675781 109.542969 130.933594 109.5 131.203125 109.34375 C 131.453125 109.195312 131.578125 109.027344 131.675781 108.695312 C 131.769531 108.386719 131.800781 107.804688 131.78125 106.78125 C 131.753906 105.472656 131.726562 105.28125 131.539062 105.03125 C 131.421875 104.878906 131.152344 104.699219 130.9375 104.632812 C 130.726562 104.566406 130.28125 104.515625 129.949219 104.515625 C 129.621094 104.515625 129.148438 104.570312 128.90625 104.632812 M 58.199219 105.398438 L 58.199219 106.101562 L 59.605469 106.101562 C 60.960938 106.101562 61.015625 106.09375 61.253906 105.855469 C 61.390625 105.71875 61.5 105.496094 61.5 105.355469 C 61.5 105.214844 61.410156 105.011719 61.300781 104.898438 C 61.117188 104.71875 60.964844 104.699219 59.648438 104.699219 L 58.199219 104.699219 L 58.199219 105.398438 M 94.300781 106.542969 L 94.300781 108.398438 L 95.675781 108.398438 C 96.429688 108.398438 97.21875 108.351562 97.421875 108.296875 C 97.625 108.238281 97.9375 108.070312 98.109375 107.925781 C 98.285156 107.777344 98.511719 107.476562 98.613281 107.253906 C 98.714844 107.03125 98.796875 106.695312 98.796875 106.507812 C 98.800781 106.316406 98.703125 105.964844 98.589844 105.726562 C 98.460938 105.460938 98.214844 105.179688 97.96875 105.019531 C 97.578125 104.757812 97.507812 104.75 95.933594 104.714844 L 94.300781 104.683594 L 94.300781 106.542969 M 137.5 106.589844 L 137.5 108.5 L 138.675781 108.5 C 139.320312 108.5 140.019531 108.453125 140.226562 108.394531 C 140.433594 108.335938 140.757812 108.15625 140.945312 107.988281 C 141.132812 107.824219 141.363281 107.492188 141.457031 107.246094 C 141.566406 106.957031 141.609375 106.644531 141.574219 106.351562 C 141.546875 106.101562 141.421875 105.75 141.296875 105.566406 C 141.171875 105.382812 140.910156 105.125 140.714844 104.992188 C 140.394531 104.769531 140.253906 104.746094 138.933594 104.714844 L 137.5 104.679688 L 137.5 106.589844 M 58.199219 108.898438 L 58.199219 109.601562 L 59.65625 109.601562 C 61.066406 109.601562 61.117188 109.59375 61.355469 109.355469 C 61.488281 109.21875 61.601562 109.015625 61.601562 108.898438 C 61.601562 108.785156 61.488281 108.582031 61.355469 108.445312 C 61.117188 108.207031 61.066406 108.199219 59.65625 108.199219 L 58.199219 108.199219 L 58.199219 108.898438 "/>
<path style=" stroke:none;fill-rule:evenodd;fill:rgb(71.372549%,9.803922%,13.333333%);fill-opacity:1;" d="M 96.550781 47.40625 C 95.558594 47.449219 94.007812 47.578125 93.101562 47.695312 C 92.191406 47.808594 90.820312 48.019531 90.050781 48.160156 C 89.28125 48.296875 88 48.570312 87.199219 48.757812 C 86.402344 48.949219 85.140625 49.289062 84.398438 49.511719 C 83.65625 49.734375 82.339844 50.1875 81.472656 50.515625 C 80.605469 50.839844 79.234375 51.402344 78.421875 51.761719 C 77.613281 52.121094 76.273438 52.777344 75.449219 53.222656 C 74.625 53.667969 73.296875 54.4375 72.5 54.933594 C 71.703125 55.429688 70.5 56.230469 69.824219 56.710938 C 69.152344 57.195312 68.183594 57.921875 67.675781 58.332031 C 67.167969 58.742188 66.164062 59.59375 65.449219 60.222656 C 64.734375 60.851562 63.636719 61.902344 63.011719 62.554688 C 62.386719 63.207031 61.425781 64.257812 60.875 64.894531 C 60.328125 65.53125 59.441406 66.636719 58.90625 67.351562 C 58.371094 68.066406 57.574219 69.191406 57.132812 69.851562 C 56.695312 70.511719 56.042969 71.546875 55.683594 72.148438 C 55.328125 72.753906 54.785156 73.722656 54.476562 74.300781 C 54.167969 74.878906 53.648438 75.9375 53.320312 76.65625 C 52.992188 77.375 52.507812 78.5 52.25 79.15625 C 51.988281 79.8125 51.53125 81.082031 51.234375 81.976562 C 50.941406 82.867188 50.496094 84.398438 50.253906 85.375 C 50.007812 86.351562 49.691406 87.777344 49.550781 88.542969 C 49.410156 89.3125 49.226562 90.503906 49.148438 91.195312 C 49.066406 91.886719 48.972656 92.707031 48.941406 93.023438 L 48.886719 93.601562 L 45.667969 93.601562 L 45.734375 95.925781 C 45.769531 97.203125 45.863281 98.902344 45.941406 99.699219 C 46.023438 100.496094 46.183594 101.800781 46.300781 102.597656 C 46.414062 103.394531 46.644531 104.699219 46.808594 105.496094 C 46.972656 106.296875 47.285156 107.628906 47.5 108.457031 C 47.71875 109.285156 48.101562 110.605469 48.355469 111.394531 C 48.609375 112.183594 49.132812 113.621094 49.519531 114.589844 C 49.90625 115.558594 50.59375 117.113281 51.042969 118.050781 C 51.496094 118.984375 52.167969 120.28125 52.539062 120.933594 C 52.910156 121.585938 53.605469 122.734375 54.082031 123.484375 C 54.5625 124.234375 55.398438 125.457031 55.941406 126.199219 C 56.480469 126.9375 57.453125 128.175781 58.101562 128.949219 C 58.746094 129.722656 59.945312 131.046875 60.761719 131.894531 C 61.582031 132.742188 62.949219 134.039062 63.800781 134.777344 C 64.652344 135.515625 65.957031 136.582031 66.699219 137.140625 C 67.441406 137.703125 68.476562 138.457031 69 138.820312 C 69.523438 139.179688 70.707031 139.929688 71.632812 140.484375 C 72.558594 141.039062 74.019531 141.851562 74.882812 142.289062 C 75.746094 142.722656 76.921875 143.292969 77.5 143.550781 C 78.078125 143.808594 79.359375 144.324219 80.351562 144.695312 C 81.339844 145.070312 82.824219 145.578125 83.648438 145.832031 C 84.476562 146.082031 85.601562 146.402344 86.148438 146.539062 C 86.699219 146.675781 87.578125 146.882812 88.101562 146.992188 C 88.621094 147.105469 89.882812 147.332031 90.898438 147.496094 C 91.917969 147.660156 93.480469 147.863281 94.371094 147.945312 C 95.265625 148.027344 96.792969 148.125 97.773438 148.160156 C 98.75 148.195312 100.515625 148.171875 101.699219 148.113281 C 102.882812 148.050781 104.59375 147.910156 105.5 147.800781 C 106.40625 147.695312 107.691406 147.511719 108.351562 147.398438 C 109.011719 147.285156 110.246094 147.03125 111.101562 146.835938 C 111.953125 146.636719 113.257812 146.304688 114 146.09375 C 114.742188 145.886719 115.777344 145.574219 116.300781 145.402344 C 116.824219 145.230469 118.058594 144.769531 119.050781 144.375 C 120.039062 143.980469 121.691406 143.242188 122.714844 142.734375 C 123.742188 142.230469 125.070312 141.535156 125.667969 141.191406 C 126.261719 140.851562 127.347656 140.191406 128.078125 139.734375 C 128.808594 139.273438 129.976562 138.484375 130.675781 137.984375 C 131.378906 137.480469 132.476562 136.644531 133.125 136.128906 C 133.769531 135.613281 134.757812 134.769531 135.324219 134.257812 C 135.886719 133.746094 137.027344 132.636719 137.855469 131.789062 C 138.683594 130.941406 139.828125 129.6875 140.398438 129 C 140.96875 128.3125 141.875 127.164062 142.40625 126.449219 C 142.9375 125.734375 143.710938 124.632812 144.121094 124 C 144.527344 123.367188 145.183594 122.308594 145.570312 121.648438 C 145.960938 120.988281 146.660156 119.683594 147.128906 118.75 C 147.597656 117.816406 148.191406 116.554688 148.449219 115.949219 C 148.707031 115.34375 149.164062 114.199219 149.464844 113.398438 C 149.765625 112.601562 150.191406 111.367188 150.410156 110.652344 C 150.628906 109.941406 150.984375 108.660156 151.199219 107.804688 C 151.410156 106.949219 151.722656 105.574219 151.886719 104.75 C 152.050781 103.925781 152.257812 102.753906 152.34375 102.148438 C 152.429688 101.546875 152.570312 100.398438 152.652344 99.601562 C 152.734375 98.800781 152.832031 97.097656 152.867188 95.8125 L 152.933594 93.472656 L 151.226562 93.546875 L 149.523438 93.617188 L 149.40625 92.734375 C 149.339844 92.246094 149.21875 91.355469 149.136719 90.75 C 149.054688 90.144531 148.875 89.066406 148.734375 88.351562 C 148.597656 87.636719 148.3125 86.351562 148.097656 85.5 C 147.886719 84.648438 147.5 83.296875 147.246094 82.5 C 146.988281 81.703125 146.488281 80.308594 146.132812 79.398438 C 145.773438 78.492188 145.089844 76.941406 144.609375 75.949219 C 144.128906 74.960938 143.429688 73.609375 143.050781 72.949219 C 142.675781 72.289062 141.957031 71.121094 141.453125 70.351562 C 140.945312 69.578125 140.0625 68.316406 139.480469 67.542969 C 138.902344 66.769531 138.007812 65.644531 137.496094 65.042969 C 136.980469 64.441406 135.972656 63.347656 135.253906 62.613281 C 134.539062 61.878906 133.433594 60.816406 132.800781 60.253906 C 132.167969 59.691406 131.175781 58.851562 130.601562 58.386719 C 130.023438 57.921875 129.011719 57.160156 128.351562 56.691406 C 127.691406 56.222656 126.496094 55.429688 125.699219 54.933594 C 124.902344 54.433594 123.574219 53.667969 122.75 53.230469 C 121.925781 52.792969 120.785156 52.21875 120.21875 51.960938 C 119.652344 51.703125 118.617188 51.261719 117.917969 50.980469 C 117.222656 50.699219 115.863281 50.207031 114.898438 49.882812 C 113.9375 49.558594 112.332031 49.09375 111.328125 48.847656 C 110.328125 48.601562 108.863281 48.289062 108.078125 48.148438 C 107.292969 48.011719 105.941406 47.808594 105.078125 47.699219 C 104.214844 47.585938 102.503906 47.453125 101.277344 47.398438 C 100.050781 47.347656 98.890625 47.308594 98.699219 47.316406 C 98.507812 47.324219 97.539062 47.367188 96.550781 47.40625 M 97.75 50.269531 C 97.199219 50.28125 96.121094 50.34375 95.351562 50.402344 C 94.578125 50.460938 93.296875 50.601562 92.5 50.710938 C 91.703125 50.824219 90.402344 51.042969 89.605469 51.207031 C 88.8125 51.367188 87.574219 51.652344 86.855469 51.84375 C 86.136719 52.035156 84.988281 52.375 84.300781 52.605469 C 83.613281 52.835938 82.351562 53.292969 81.5 53.628906 C 80.648438 53.960938 78.984375 54.71875 77.800781 55.3125 C 76.617188 55.910156 75.011719 56.796875 74.230469 57.285156 C 73.445312 57.777344 72.316406 58.519531 71.71875 58.941406 C 71.121094 59.363281 69.980469 60.230469 69.191406 60.871094 C 68.390625 61.519531 66.769531 63.019531 65.542969 64.246094 C 64.128906 65.65625 62.910156 66.992188 62.144531 67.953125 C 61.488281 68.78125 60.65625 69.871094 60.300781 70.378906 C 59.941406 70.886719 59.234375 71.964844 58.722656 72.773438 C 58.214844 73.585938 57.375 75.082031 56.859375 76.101562 C 56.339844 77.117188 55.671875 78.535156 55.367188 79.25 C 55.066406 79.964844 54.613281 81.121094 54.359375 81.820312 C 54.109375 82.519531 53.699219 83.800781 53.449219 84.671875 C 53.199219 85.539062 52.816406 87.128906 52.601562 88.199219 C 52.382812 89.273438 52.136719 90.679688 52.050781 91.332031 C 51.96875 91.980469 51.898438 92.753906 51.898438 93.054688 L 51.898438 93.601562 L 55.769531 93.601562 L 55.832031 92.773438 C 55.863281 92.320312 56.007812 91.261719 56.152344 90.417969 C 56.292969 89.574219 56.589844 88.164062 56.808594 87.285156 C 57.023438 86.402344 57.410156 85.042969 57.660156 84.265625 C 57.914062 83.488281 58.394531 82.175781 58.726562 81.351562 C 59.054688 80.523438 59.679688 79.140625 60.113281 78.277344 C 60.546875 77.410156 61.199219 76.195312 61.5625 75.578125 C 61.929688 74.957031 62.609375 73.886719 63.078125 73.199219 C 63.542969 72.511719 64.289062 71.480469 64.738281 70.910156 C 65.183594 70.335938 66.027344 69.324219 66.609375 68.660156 C 67.195312 67.992188 68.207031 66.933594 68.863281 66.300781 C 69.519531 65.667969 70.574219 64.71875 71.203125 64.191406 C 71.835938 63.664062 72.867188 62.847656 73.5 62.378906 C 74.132812 61.910156 75.15625 61.207031 75.773438 60.816406 C 76.390625 60.425781 77.539062 59.75 78.324219 59.3125 C 79.109375 58.875 80.292969 58.269531 80.960938 57.964844 C 81.625 57.660156 82.726562 57.1875 83.410156 56.917969 C 84.09375 56.644531 85.144531 56.265625 85.75 56.070312 C 86.355469 55.875 87.367188 55.578125 88 55.410156 C 88.632812 55.242188 89.667969 54.992188 90.300781 54.859375 C 90.933594 54.722656 91.898438 54.542969 92.449219 54.460938 C 93 54.375 93.855469 54.261719 94.351562 54.203125 C 94.84375 54.148438 95.902344 54.054688 96.699219 54 C 97.496094 53.945312 98.675781 53.902344 99.316406 53.902344 C 99.957031 53.902344 101.175781 53.945312 102.015625 54.003906 C 102.859375 54.058594 104.269531 54.199219 105.148438 54.3125 C 106.03125 54.421875 107.492188 54.671875 108.398438 54.867188 C 109.308594 55.058594 110.722656 55.414062 111.550781 55.652344 C 112.375 55.894531 113.589844 56.289062 114.25 56.53125 C 114.910156 56.773438 115.898438 57.164062 116.449219 57.398438 C 117 57.632812 118.148438 58.175781 119 58.605469 C 119.851562 59.039062 121.046875 59.6875 121.648438 60.054688 C 122.253906 60.417969 123.246094 61.042969 123.851562 61.445312 C 124.453125 61.847656 125.421875 62.550781 126 63.007812 C 126.578125 63.460938 127.519531 64.242188 128.097656 64.742188 C 128.671875 65.242188 129.679688 66.191406 130.335938 66.851562 C 130.992188 67.511719 131.988281 68.589844 132.546875 69.25 C 133.109375 69.910156 133.90625 70.898438 134.320312 71.449219 C 134.734375 72 135.457031 73.035156 135.925781 73.75 C 136.394531 74.464844 137.0625 75.546875 137.40625 76.148438 C 137.753906 76.753906 138.34375 77.886719 138.71875 78.667969 C 139.089844 79.445312 139.628906 80.660156 139.910156 81.367188 C 140.191406 82.074219 140.625 83.25 140.871094 83.984375 C 141.117188 84.71875 141.515625 86.105469 141.753906 87.0625 C 141.996094 88.019531 142.304688 89.488281 142.441406 90.324219 C 142.578125 91.164062 142.742188 92.242188 142.804688 92.726562 L 142.921875 93.601562 L 144.609375 93.601562 C 146.035156 93.601562 146.300781 93.578125 146.300781 93.453125 C 146.300781 93.371094 146.1875 92.46875 146.046875 91.449219 C 145.910156 90.429688 145.660156 88.933594 145.492188 88.121094 C 145.328125 87.3125 145.054688 86.140625 144.886719 85.515625 C 144.722656 84.894531 144.40625 83.8125 144.183594 83.117188 C 143.960938 82.421875 143.492188 81.117188 143.136719 80.21875 C 142.78125 79.320312 142.136719 77.859375 141.703125 76.96875 C 141.273438 76.078125 140.597656 74.796875 140.207031 74.117188 C 139.816406 73.4375 139.121094 72.3125 138.660156 71.617188 C 138.199219 70.921875 137.417969 69.808594 136.921875 69.148438 C 136.425781 68.488281 135.578125 67.433594 135.039062 66.800781 C 134.496094 66.167969 133.402344 64.996094 132.601562 64.195312 C 131.804688 63.398438 130.609375 62.277344 129.949219 61.710938 C 129.289062 61.140625 128.164062 60.238281 127.449219 59.699219 C 126.734375 59.164062 125.566406 58.339844 124.851562 57.875 C 124.136719 57.410156 123.011719 56.71875 122.351562 56.34375 C 121.691406 55.972656 120.453125 55.332031 119.601562 54.921875 C 118.746094 54.515625 117.496094 53.957031 116.820312 53.6875 C 116.144531 53.417969 115.0625 53.015625 114.417969 52.792969 C 113.777344 52.570312 112.625 52.210938 111.859375 51.992188 C 111.097656 51.777344 109.699219 51.445312 108.761719 51.253906 C 107.820312 51.0625 106.421875 50.816406 105.648438 50.707031 C 104.878906 50.601562 103.640625 50.464844 102.898438 50.410156 C 102.15625 50.355469 100.921875 50.292969 100.148438 50.277344 C 99.378906 50.261719 98.300781 50.257812 97.75 50.269531 M 95.25 55.359375 C 94.480469 55.4375 93.152344 55.617188 92.300781 55.757812 C 91.449219 55.902344 89.957031 56.21875 88.988281 56.460938 C 88.023438 56.703125 86.515625 57.144531 85.640625 57.441406 C 84.765625 57.738281 83.554688 58.191406 82.949219 58.449219 C 82.34375 58.707031 81.265625 59.203125 80.550781 59.550781 C 79.835938 59.898438 78.621094 60.558594 77.851562 61.019531 C 77.078125 61.480469 76.089844 62.101562 75.648438 62.398438 C 75.210938 62.695312 74.324219 63.332031 73.683594 63.816406 C 73.042969 64.296875 72.027344 65.117188 71.433594 65.632812 C 70.835938 66.148438 69.652344 67.285156 68.800781 68.160156 C 67.945312 69.035156 66.761719 70.359375 66.164062 71.101562 C 65.570312 71.84375 64.640625 73.105469 64.097656 73.90625 C 63.558594 74.710938 62.792969 75.925781 62.402344 76.609375 C 62.011719 77.292969 61.425781 78.390625 61.101562 79.050781 C 60.78125 79.710938 60.316406 80.722656 60.070312 81.300781 C 59.828125 81.878906 59.414062 82.957031 59.15625 83.699219 C 58.898438 84.441406 58.53125 85.597656 58.34375 86.269531 C 58.152344 86.941406 57.886719 88.007812 57.75 88.644531 C 57.613281 89.28125 57.414062 90.351562 57.308594 91.023438 C 57.203125 91.699219 57.085938 92.554688 57.050781 92.925781 L 56.984375 93.601562 L 141.703125 93.601562 L 141.65625 93.375 C 141.628906 93.25 141.535156 92.609375 141.445312 91.949219 C 141.359375 91.289062 141.195312 90.277344 141.085938 89.699219 C 140.976562 89.121094 140.753906 88.109375 140.589844 87.449219 C 140.425781 86.789062 140.109375 85.664062 139.886719 84.949219 C 139.664062 84.234375 139.214844 82.976562 138.890625 82.148438 C 138.570312 81.324219 137.949219 79.929688 137.515625 79.050781 C 137.082031 78.171875 136.46875 77 136.152344 76.449219 C 135.832031 75.898438 135.167969 74.84375 134.671875 74.101562 C 134.179688 73.359375 133.410156 72.28125 132.960938 71.707031 C 132.515625 71.136719 131.796875 70.257812 131.359375 69.757812 C 130.925781 69.257812 130.117188 68.386719 129.5625 67.816406 C 129.003906 67.25 127.964844 66.277344 127.25 65.660156 C 126.535156 65.039062 125.40625 64.125 124.738281 63.625 C 124.074219 63.125 122.96875 62.359375 122.289062 61.925781 C 121.605469 61.492188 120.726562 60.945312 120.328125 60.714844 C 119.929688 60.484375 119.03125 60.007812 118.328125 59.65625 C 117.625 59.308594 116.53125 58.796875 115.898438 58.523438 C 115.265625 58.25 114.070312 57.789062 113.246094 57.503906 C 112.425781 57.21875 110.894531 56.769531 109.851562 56.503906 C 108.804688 56.234375 107.253906 55.902344 106.398438 55.757812 C 105.546875 55.617188 104.132812 55.433594 103.257812 55.351562 C 102.277344 55.257812 100.710938 55.203125 99.160156 55.210938 C 97.777344 55.21875 96.019531 55.285156 95.25 55.359375 M 89.898438 64.195312 C 89.761719 64.234375 89.515625 64.339844 89.347656 64.425781 C 89.183594 64.511719 88.910156 64.734375 88.734375 64.917969 C 88.5625 65.101562 88.347656 65.394531 88.261719 65.570312 C 88.171875 65.75 87.535156 68.4375 86.847656 71.550781 C 86.128906 74.820312 85.601562 77.429688 85.601562 77.730469 C 85.601562 78.0625 85.6875 78.429688 85.835938 78.75 C 85.964844 79.027344 86.230469 79.394531 86.425781 79.566406 C 86.621094 79.738281 87.023438 79.96875 87.316406 80.078125 C 87.609375 80.183594 88.019531 80.304688 88.226562 80.339844 L 88.601562 80.410156 L 88.601562 78.839844 L 88.144531 78.71875 C 87.894531 78.652344 87.578125 78.488281 87.445312 78.351562 C 87.273438 78.179688 87.199219 77.996094 87.199219 77.730469 C 87.195312 77.519531 87.746094 74.855469 88.414062 71.808594 C 89.359375 67.523438 89.683594 66.214844 89.84375 66.03125 C 89.957031 65.902344 90.183594 65.757812 90.351562 65.710938 C 90.585938 65.648438 92.320312 65.996094 98.25 67.308594 L 105.851562 68.992188 L 108.375 68.996094 C 109.921875 69 110.898438 68.960938 110.898438 68.902344 C 110.898438 68.851562 110.707031 68.699219 110.476562 68.566406 C 110.152344 68.378906 107.761719 67.816406 100.46875 66.210938 C 95.199219 65.050781 90.722656 64.105469 90.519531 64.109375 C 90.316406 64.113281 90.039062 64.152344 89.898438 64.195312 M 91.671875 70.308594 C 91.464844 70.359375 91.171875 70.472656 91.023438 70.566406 C 90.871094 70.660156 90.621094 70.851562 90.464844 70.992188 C 90.308594 71.132812 90.085938 71.429688 89.964844 71.648438 C 89.753906 72.046875 89.75 72.113281 89.722656 78.242188 C 89.699219 83.636719 89.714844 84.492188 89.851562 84.902344 C 89.9375 85.160156 90.160156 85.550781 90.347656 85.773438 C 90.539062 85.996094 90.925781 86.277344 91.21875 86.410156 L 91.75 86.648438 L 101.800781 86.648438 C 111.78125 86.648438 111.851562 86.648438 112.300781 86.441406 C 112.550781 86.328125 112.90625 86.078125 113.09375 85.890625 C 113.28125 85.703125 113.539062 85.320312 113.667969 85.035156 L 113.90625 84.519531 L 113.878906 78.335938 L 113.851562 72.148438 L 113.542969 71.601562 C 113.34375 71.246094 113.066406 70.9375 112.769531 70.734375 C 112.511719 70.558594 112.074219 70.367188 111.796875 70.308594 C 111.449219 70.234375 108.253906 70.203125 101.671875 70.210938 C 96.378906 70.214844 91.878906 70.261719 91.671875 70.308594 M 91.609375 72.089844 L 91.300781 72.378906 L 91.300781 77.101562 L 93.023438 77.089844 L 94.75 77.082031 L 94 76.914062 C 93.269531 76.753906 93.25 76.742188 93.21875 76.433594 C 93.203125 76.25 93.28125 75.929688 93.40625 75.683594 C 93.523438 75.445312 93.871094 74.917969 94.171875 74.511719 L 94.722656 73.777344 L 95.1875 73.820312 C 95.441406 73.847656 95.816406 73.945312 96.023438 74.042969 C 96.226562 74.140625 96.597656 74.398438 96.847656 74.617188 L 97.300781 75.015625 L 97.300781 71.800781 L 91.921875 71.800781 L 91.609375 72.089844 M 99.101562 73.402344 L 99.101562 75.003906 L 99.625 74.585938 C 99.914062 74.359375 100.328125 74.089844 100.550781 73.988281 C 100.769531 73.886719 101.117188 73.804688 101.324219 73.800781 C 101.660156 73.800781 101.742188 73.855469 102.152344 74.375 C 102.402344 74.691406 102.742188 75.179688 102.902344 75.460938 C 103.066406 75.742188 103.226562 76.105469 103.257812 76.269531 C 103.296875 76.453125 103.269531 76.601562 103.183594 76.671875 C 103.109375 76.730469 102.734375 76.847656 102.351562 76.929688 C 101.695312 77.070312 101.992188 77.078125 106.976562 77.089844 L 112.300781 77.101562 L 112.296875 74.773438 C 112.292969 72.707031 112.273438 72.425781 112.117188 72.238281 C 112.019531 72.125 111.84375 71.976562 111.726562 71.914062 C 111.574219 71.832031 109.78125 71.800781 105.304688 71.800781 L 99.101562 71.800781 L 99.101562 73.402344 M 91.300781 81.675781 C 91.304688 84.152344 91.324219 84.472656 91.476562 84.664062 C 91.574219 84.78125 91.75 84.925781 91.867188 84.988281 C 92.011719 85.0625 92.96875 85.101562 94.695312 85.101562 L 97.300781 85.101562 L 97.300781 79.25 L 96.996094 79.699219 C 96.832031 79.949219 96.605469 80.4375 96.5 80.785156 C 96.390625 81.136719 96.300781 81.566406 96.300781 81.75 C 96.300781 81.929688 96.242188 82.121094 96.175781 82.175781 C 96.105469 82.234375 95.632812 82.335938 95.121094 82.402344 C 94.613281 82.472656 94.164062 82.496094 94.125 82.460938 C 94.085938 82.421875 94.160156 81.976562 94.289062 81.46875 C 94.417969 80.964844 94.652344 80.210938 94.808594 79.800781 C 94.96875 79.386719 95.097656 79.015625 95.097656 78.976562 C 95.101562 78.933594 94.246094 78.898438 93.199219 78.898438 L 91.300781 78.898438 L 91.300781 81.675781 M 101.347656 79.074219 C 101.386719 79.171875 101.523438 79.519531 101.652344 79.851562 C 101.777344 80.183594 102.003906 80.898438 102.148438 81.4375 C 102.296875 81.976562 102.390625 82.441406 102.359375 82.476562 C 102.328125 82.507812 101.847656 82.472656 101.289062 82.398438 C 100.734375 82.324219 100.269531 82.214844 100.253906 82.15625 C 100.238281 82.097656 100.171875 81.761719 100.105469 81.40625 C 100.039062 81.054688 99.855469 80.511719 99.699219 80.207031 C 99.542969 79.902344 99.347656 79.558594 99.261719 79.449219 C 99.121094 79.269531 99.105469 79.515625 99.101562 82.175781 L 99.101562 85.105469 L 105.40625 85.078125 L 111.714844 85.050781 L 112.007812 84.722656 L 112.300781 84.398438 L 112.300781 78.898438 L 106.789062 78.898438 C 101.582031 78.898438 101.28125 78.910156 101.347656 79.074219 M 67.503906 102.554688 C 67.203125 102.636719 66.753906 102.839844 66.503906 103 C 66.253906 103.160156 65.902344 103.507812 65.722656 103.773438 C 65.519531 104.078125 65.34375 104.515625 65.25 104.953125 C 65.160156 105.378906 65.101562 106.207031 65.101562 107.070312 C 65.101562 107.851562 65.152344 108.730469 65.210938 109.019531 C 65.273438 109.3125 65.429688 109.753906 65.554688 110 C 65.679688 110.246094 65.933594 110.589844 66.117188 110.765625 C 66.300781 110.9375 66.628906 111.167969 66.851562 111.277344 C 67.070312 111.386719 67.488281 111.527344 67.78125 111.585938 C 68.070312 111.648438 68.679688 111.699219 69.128906 111.699219 C 69.582031 111.695312 70.117188 111.65625 70.324219 111.609375 C 70.542969 111.558594 70.722656 111.558594 70.757812 111.609375 C 70.785156 111.660156 71.328125 111.699219 71.957031 111.699219 C 72.585938 111.699219 73.101562 111.664062 73.101562 111.625 C 73.101562 111.582031 72.941406 111.3125 72.75 111.027344 C 72.558594 110.742188 72.398438 110.476562 72.398438 110.433594 C 72.398438 110.394531 72.488281 110.175781 72.601562 109.949219 C 72.710938 109.722656 72.847656 109.273438 72.90625 108.953125 C 72.96875 108.621094 73 107.632812 72.980469 106.660156 C 72.945312 105.171875 72.910156 104.875 72.714844 104.375 C 72.578125 104.03125 72.308594 103.625 72.042969 103.359375 C 71.769531 103.085938 71.378906 102.828125 71.023438 102.691406 C 70.574219 102.519531 70.191406 102.460938 69.25 102.4375 C 68.390625 102.410156 67.894531 102.445312 67.503906 102.554688 M 111.175781 102.507812 C 110.96875 102.558594 110.574219 102.710938 110.304688 102.847656 C 110.03125 102.988281 109.652344 103.238281 109.460938 103.402344 C 109.269531 103.570312 109.015625 103.914062 108.894531 104.160156 C 108.742188 104.480469 108.675781 104.800781 108.675781 105.238281 C 108.675781 105.667969 108.738281 105.984375 108.882812 106.265625 C 108.996094 106.488281 109.320312 106.878906 109.601562 107.132812 C 109.886719 107.390625 110.355469 107.679688 110.675781 107.800781 C 110.992188 107.917969 111.667969 108.050781 112.21875 108.097656 C 112.808594 108.148438 113.347656 108.253906 113.574219 108.367188 C 113.847656 108.5 113.957031 108.621094 113.980469 108.8125 C 114.003906 109 113.9375 109.136719 113.75 109.28125 C 113.605469 109.394531 113.242188 109.539062 112.941406 109.601562 C 112.542969 109.683594 112.257812 109.6875 111.890625 109.609375 C 111.617188 109.546875 111.25 109.425781 111.078125 109.339844 C 110.910156 109.25 110.550781 108.976562 110.285156 108.726562 C 109.949219 108.410156 109.789062 108.316406 109.753906 108.414062 C 109.722656 108.488281 109.5625 108.953125 109.394531 109.449219 L 109.089844 110.351562 L 109.59375 110.816406 C 109.878906 111.082031 110.347656 111.382812 110.671875 111.511719 C 111.15625 111.703125 111.4375 111.742188 112.398438 111.742188 C 113.359375 111.742188 113.644531 111.703125 114.121094 111.515625 C 114.433594 111.390625 114.917969 111.082031 115.199219 110.832031 C 115.480469 110.578125 115.808594 110.1875 115.925781 109.960938 C 116.082031 109.664062 116.144531 109.371094 116.144531 108.898438 C 116.144531 108.460938 116.082031 108.121094 115.949219 107.851562 C 115.84375 107.636719 115.582031 107.28125 115.367188 107.070312 C 115.15625 106.855469 114.699219 106.550781 114.359375 106.390625 C 113.886719 106.167969 113.492188 106.074219 112.730469 106.003906 C 112.175781 105.949219 111.535156 105.832031 111.308594 105.742188 C 111.023438 105.628906 110.878906 105.5 110.835938 105.324219 C 110.785156 105.132812 110.828125 105.03125 111.011719 104.890625 C 111.140625 104.792969 111.4375 104.664062 111.667969 104.605469 C 111.898438 104.546875 112.242188 104.5 112.425781 104.5 C 112.613281 104.5 112.996094 104.570312 113.28125 104.652344 C 113.644531 104.761719 113.96875 104.96875 114.390625 105.355469 C 114.714844 105.660156 115.007812 105.867188 115.035156 105.820312 C 115.066406 105.773438 115.230469 105.296875 115.402344 104.757812 L 115.714844 103.78125 L 115.488281 103.539062 C 115.363281 103.40625 115.054688 103.164062 114.804688 103.003906 C 114.554688 102.84375 114.082031 102.640625 113.753906 102.554688 C 113.425781 102.46875 112.796875 102.40625 112.355469 102.410156 C 111.910156 102.414062 111.382812 102.460938 111.175781 102.507812 M 128.320312 102.550781 C 128.027344 102.632812 127.695312 102.75 127.582031 102.808594 C 127.464844 102.871094 127.171875 103.105469 126.925781 103.332031 C 126.683594 103.558594 126.402344 103.902344 126.300781 104.097656 C 126.199219 104.292969 126.066406 104.730469 126 105.0625 C 125.921875 105.445312 125.894531 106.3125 125.917969 107.410156 C 125.953125 109.078125 125.964844 109.175781 126.242188 109.78125 C 126.425781 110.179688 126.695312 110.554688 126.976562 110.800781 C 127.222656 111.015625 127.675781 111.289062 127.984375 111.410156 C 128.363281 111.554688 128.871094 111.640625 129.523438 111.675781 C 130.105469 111.707031 130.75 111.675781 131.121094 111.605469 C 131.464844 111.535156 131.949219 111.378906 132.203125 111.25 C 132.453125 111.121094 132.808594 110.867188 132.992188 110.683594 C 133.175781 110.5 133.433594 110.117188 133.566406 109.835938 C 133.730469 109.480469 133.839844 108.984375 133.917969 108.230469 C 134.003906 107.433594 134.003906 106.820312 133.925781 105.960938 C 133.835938 104.972656 133.769531 104.679688 133.503906 104.144531 C 133.328125 103.789062 133.027344 103.371094 132.820312 103.203125 C 132.617188 103.035156 132.203125 102.800781 131.898438 102.683594 C 131.46875 102.515625 131.078125 102.460938 130.101562 102.433594 C 129.210938 102.410156 128.699219 102.445312 128.320312 102.550781 M 56 107.15625 L 56 111.710938 L 58.875 111.679688 C 61.449219 111.652344 61.785156 111.628906 62.101562 111.464844 C 62.292969 111.363281 62.621094 111.113281 62.832031 110.914062 C 63.042969 110.714844 63.3125 110.371094 63.429688 110.148438 C 63.597656 109.839844 63.644531 109.574219 63.648438 108.945312 C 63.648438 108.261719 63.609375 108.0625 63.375 107.609375 L 63.097656 107.074219 L 63.363281 106.53125 C 63.570312 106.105469 63.628906 105.839844 63.628906 105.308594 C 63.628906 104.761719 63.574219 104.519531 63.339844 104.046875 C 63.15625 103.671875 62.894531 103.339844 62.621094 103.132812 C 62.386719 102.953125 62.027344 102.761719 61.824219 102.703125 C 61.609375 102.644531 60.292969 102.601562 58.726562 102.601562 L 56 102.601562 L 56 107.15625 M 74.5 103.648438 L 74.5 104.699219 L 76.5625 104.699219 C 78.238281 104.699219 78.613281 104.726562 78.570312 104.832031 C 78.542969 104.90625 77.546875 106.410156 76.359375 108.171875 C 75.171875 109.9375 74.171875 111.453125 74.140625 111.539062 C 74.085938 111.683594 74.457031 111.699219 78.140625 111.699219 L 82.199219 111.699219 L 82.199219 109.601562 L 80.148438 109.601562 C 78.738281 109.601562 78.101562 109.566406 78.101562 109.492188 C 78.101562 109.429688 79.113281 107.878906 80.351562 106.039062 C 81.585938 104.199219 82.601562 102.671875 82.601562 102.648438 C 82.601562 102.621094 80.777344 102.601562 78.550781 102.601562 L 74.5 102.601562 L 74.5 103.648438 M 83.324219 107.125 L 83.351562 111.648438 L 87.074219 111.675781 L 90.800781 111.703125 L 90.800781 109.601562 L 85.5 109.601562 L 85.5 108.699219 L 89.800781 108.699219 L 89.800781 106.601562 L 85.5 106.601562 L 85.5 104.699219 L 90.800781 104.699219 L 90.800781 102.601562 L 83.296875 102.601562 L 83.324219 107.125 M 92.125 107.125 L 92.148438 111.648438 L 93.226562 111.679688 L 94.300781 111.707031 L 94.300781 110.5 L 96.1875 110.5 L 96.40625 111.101562 L 96.625 111.699219 L 97.761719 111.699219 C 98.386719 111.699219 98.898438 111.679688 98.898438 111.652344 C 98.898438 111.625 98.785156 111.300781 98.644531 110.929688 C 98.503906 110.558594 98.429688 110.238281 98.480469 110.222656 C 98.53125 110.207031 98.8125 110.046875 99.109375 109.871094 C 99.441406 109.671875 99.824219 109.316406 100.105469 108.945312 C 100.355469 108.613281 100.644531 108.074219 100.75 107.746094 C 100.867188 107.375 100.9375 106.886719 100.929688 106.449219 C 100.921875 105.996094 100.84375 105.546875 100.703125 105.175781 C 100.582031 104.859375 100.308594 104.378906 100.097656 104.105469 C 99.882812 103.835938 99.5 103.472656 99.246094 103.296875 C 98.992188 103.121094 98.539062 102.894531 98.246094 102.789062 C 97.765625 102.621094 97.398438 102.601562 94.902344 102.601562 L 92.097656 102.601562 L 92.125 107.125 M 117.199219 107.148438 L 117.199219 111.699219 L 119.398438 111.699219 L 119.398438 109.300781 L 122.300781 109.300781 L 122.300781 111.707031 L 123.375 111.679688 L 124.449219 111.648438 L 124.503906 102.601562 L 122.304688 102.601562 L 122.25 107.148438 L 120.824219 107.175781 L 119.398438 107.207031 L 119.398438 102.601562 L 117.199219 102.601562 L 117.199219 107.148438 M 135.324219 107.121094 L 135.351562 111.648438 L 136.425781 111.679688 L 137.5 111.707031 L 137.5 110.617188 L 139.125 110.582031 C 140.644531 110.550781 140.789062 110.53125 141.324219 110.28125 C 141.640625 110.132812 142.148438 109.777344 142.453125 109.488281 C 142.78125 109.179688 143.125 108.722656 143.304688 108.359375 C 143.46875 108.023438 143.648438 107.480469 143.699219 107.148438 C 143.761719 106.765625 143.761719 106.335938 143.703125 105.964844 C 143.652344 105.648438 143.496094 105.140625 143.359375 104.839844 C 143.222656 104.542969 142.871094 104.058594 142.578125 103.765625 C 142.289062 103.476562 141.78125 103.105469 141.449219 102.945312 L 140.851562 102.648438 L 138.074219 102.621094 L 135.296875 102.589844 L 135.324219 107.121094 M 68.101562 104.597656 C 67.910156 104.644531 67.65625 104.796875 67.535156 104.9375 C 67.382812 105.117188 67.296875 105.390625 67.246094 105.863281 C 67.207031 106.230469 67.195312 107.011719 67.222656 107.597656 C 67.253906 108.273438 67.332031 108.769531 67.429688 108.960938 C 67.515625 109.125 67.695312 109.3125 67.835938 109.375 C 67.972656 109.4375 68.355469 109.519531 68.691406 109.558594 C 69.175781 109.613281 69.300781 109.597656 69.300781 109.488281 C 69.300781 109.410156 69.097656 109.046875 68.851562 108.675781 C 68.601562 108.308594 68.398438 107.980469 68.398438 107.949219 C 68.398438 107.914062 68.953125 107.898438 69.625 107.90625 L 70.851562 107.921875 L 70.847656 106.636719 C 70.84375 105.800781 70.800781 105.273438 70.71875 105.125 C 70.648438 105 70.480469 104.828125 70.347656 104.738281 C 70.1875 104.632812 69.816406 104.566406 69.277344 104.542969 C 68.820312 104.523438 68.292969 104.546875 68.101562 104.597656 M 128.90625 104.632812 C 128.570312 104.722656 128.410156 104.832031 128.265625 105.082031 C 128.097656 105.371094 128.074219 105.613281 128.074219 106.980469 C 128.074219 108.160156 128.113281 108.640625 128.226562 108.914062 C 128.34375 109.191406 128.472656 109.308594 128.765625 109.410156 C 128.976562 109.484375 129.535156 109.542969 130.003906 109.542969 C 130.675781 109.542969 130.933594 109.5 131.203125 109.34375 C 131.453125 109.195312 131.578125 109.027344 131.675781 108.695312 C 131.769531 108.386719 131.800781 107.804688 131.78125 106.78125 C 131.753906 105.472656 131.726562 105.28125 131.539062 105.03125 C 131.421875 104.878906 131.152344 104.699219 130.9375 104.632812 C 130.726562 104.566406 130.28125 104.515625 129.949219 104.515625 C 129.621094 104.515625 129.148438 104.570312 128.90625 104.632812 M 58.199219 105.398438 L 58.199219 106.101562 L 59.605469 106.101562 C 60.960938 106.101562 61.015625 106.09375 61.253906 105.855469 C 61.390625 105.71875 61.5 105.496094 61.5 105.355469 C 61.5 105.214844 61.410156 105.011719 61.300781 104.898438 C 61.117188 104.71875 60.964844 104.699219 59.648438 104.699219 L 58.199219 104.699219 L 58.199219 105.398438 M 94.300781 106.542969 L 94.300781 108.398438 L 95.675781 108.398438 C 96.429688 108.398438 97.21875 108.351562 97.421875 108.296875 C 97.625 108.238281 97.9375 108.070312 98.109375 107.925781 C 98.285156 107.777344 98.511719 107.476562 98.613281 107.253906 C 98.714844 107.03125 98.796875 106.695312 98.796875 106.507812 C 98.800781 106.316406 98.703125 105.964844 98.589844 105.726562 C 98.460938 105.460938 98.214844 105.179688 97.96875 105.019531 C 97.578125 104.757812 97.507812 104.75 95.933594 104.714844 L 94.300781 104.683594 L 94.300781 106.542969 M 137.5 106.589844 L 137.5 108.5 L 138.675781 108.5 C 139.320312 108.5 140.019531 108.453125 140.226562 108.394531 C 140.433594 108.335938 140.757812 108.15625 140.945312 107.988281 C 141.132812 107.824219 141.363281 107.492188 141.457031 107.246094 C 141.566406 106.957031 141.609375 106.644531 141.574219 106.351562 C 141.546875 106.101562 141.421875 105.75 141.296875 105.566406 C 141.171875 105.382812 140.910156 105.125 140.714844 104.992188 C 140.394531 104.769531 140.253906 104.746094 138.933594 104.714844 L 137.5 104.679688 L 137.5 106.589844 M 58.199219 108.898438 L 58.199219 109.601562 L 59.65625 109.601562 C 61.066406 109.601562 61.117188 109.59375 61.355469 109.355469 C 61.488281 109.21875 61.601562 109.015625 61.601562 108.898438 C 61.601562 108.785156 61.488281 108.582031 61.355469 108.445312 C 61.117188 108.207031 61.066406 108.199219 59.65625 108.199219 L 58.199219 108.199219 L 58.199219 108.898438 M 56.199219 118.714844 C 56.199219 118.78125 56.550781 119.511719 56.984375 120.339844 C 57.414062 121.171875 58.128906 122.4375 58.574219 123.152344 C 59.019531 123.863281 59.726562 124.933594 60.144531 125.527344 C 60.566406 126.121094 61.3125 127.109375 61.808594 127.726562 C 62.300781 128.34375 63.078125 129.261719 63.527344 129.765625 L 64.351562 130.683594 L 134.3125 130.699219 L 134.839844 130.125 C 135.128906 129.808594 135.65625 129.210938 136.011719 128.800781 C 136.363281 128.386719 136.902344 127.734375 137.210938 127.351562 C 137.515625 126.964844 138.070312 126.230469 138.441406 125.714844 C 138.8125 125.199219 139.476562 124.214844 139.917969 123.523438 C 140.355469 122.832031 141 121.769531 141.347656 121.160156 C 141.691406 120.550781 142.136719 119.722656 142.339844 119.324219 L 142.703125 118.601562 L 99.453125 118.601562 C 66.742188 118.601562 56.199219 118.628906 56.199219 118.714844 M 66.601562 122.949219 L 66.601562 123.398438 L 71.199219 123.398438 L 71.199219 122.5 L 66.601562 122.5 L 66.601562 122.949219 M 127.5 122.949219 L 127.5 123.398438 L 132.101562 123.398438 L 132.101562 122.5 L 127.5 122.5 L 127.5 122.949219 M 77.820312 123.496094 C 77.609375 123.777344 77.601562 123.890625 77.601562 125.785156 L 77.601562 127.78125 L 77.90625 128.042969 C 78.210938 128.296875 78.230469 128.300781 79.925781 128.300781 L 81.640625 128.300781 L 81.917969 128.03125 C 82.195312 127.765625 82.199219 127.75 82.199219 126.53125 L 82.199219 125.300781 L 79.800781 125.300781 L 79.800781 125.789062 C 79.800781 126.144531 79.84375 126.296875 79.957031 126.339844 C 80.046875 126.371094 80.335938 126.398438 80.609375 126.398438 L 81.101562 126.398438 L 81.101562 127.199219 L 78.699219 127.199219 L 78.699219 124.300781 L 79.894531 124.300781 C 81.054688 124.300781 81.085938 124.304688 81.117188 124.523438 C 81.144531 124.722656 81.207031 124.75 81.648438 124.75 L 82.148438 124.75 L 82.179688 124.210938 C 82.207031 123.769531 82.171875 123.632812 81.988281 123.4375 C 81.769531 123.203125 81.734375 123.199219 79.902344 123.199219 L 78.039062 123.199219 L 77.820312 123.496094 M 82.824219 125.726562 L 82.851562 128.25 L 83.851562 128.25 L 83.875 125.726562 L 83.902344 123.199219 L 82.796875 123.199219 L 82.824219 125.726562 M 84.5 125.699219 L 84.5 128.195312 L 84.738281 128.257812 C 84.867188 128.289062 85.105469 128.300781 85.261719 128.28125 L 85.550781 128.25 L 85.605469 126.304688 L 88.550781 126.25 L 88.582031 125.726562 L 88.609375 125.199219 L 85.601562 125.199219 L 85.601562 124.300781 L 87.09375 124.300781 C 87.914062 124.300781 88.65625 124.273438 88.742188 124.238281 C 88.855469 124.195312 88.898438 124.042969 88.898438 123.6875 L 88.898438 123.199219 L 84.5 123.199219 L 84.5 125.699219 M 89 123.6875 C 89 124.042969 89.042969 124.195312 89.15625 124.238281 C 89.246094 124.273438 89.648438 124.300781 90.054688 124.300781 L 90.796875 124.300781 L 90.824219 126.273438 L 90.851562 128.25 L 91.851562 128.25 L 91.878906 126.277344 L 91.902344 124.308594 L 92.726562 124.277344 L 93.550781 124.25 L 93.582031 123.726562 L 93.609375 123.199219 L 89 123.199219 L 89 123.6875 M 97.117188 123.429688 C 96.910156 123.652344 96.898438 123.742188 96.898438 125.773438 L 96.898438 127.886719 L 97.191406 128.09375 C 97.457031 128.28125 97.621094 128.300781 99.160156 128.300781 L 100.839844 128.300781 L 101.121094 128.03125 C 101.359375 127.804688 101.398438 127.683594 101.398438 127.230469 L 101.398438 126.699219 L 100.851562 126.699219 C 100.328125 126.699219 100.300781 126.714844 100.300781 126.949219 L 100.300781 127.199219 L 98 127.199219 L 98 124.300781 L 99.148438 124.300781 C 100.230469 124.300781 100.300781 124.3125 100.300781 124.5 C 100.300781 124.625 100.386719 124.71875 100.539062 124.757812 C 100.667969 124.789062 100.90625 124.800781 101.0625 124.78125 C 101.335938 124.75 101.351562 124.722656 101.378906 124.210938 C 101.40625 123.769531 101.371094 123.632812 101.1875 123.4375 C 100.96875 123.203125 100.929688 123.199219 99.148438 123.199219 C 97.382812 123.199219 97.328125 123.207031 97.117188 123.429688 M 102.621094 123.929688 L 101.894531 124.660156 L 101.921875 126.453125 L 101.949219 128.25 L 102.949219 128.25 L 102.980469 127.523438 L 103.007812 126.800781 L 105.390625 126.800781 L 105.421875 127.523438 C 105.449219 128.242188 105.453125 128.25 105.738281 128.28125 C 105.894531 128.300781 106.132812 128.289062 106.261719 128.257812 L 106.5 128.195312 L 106.5 123.199219 L 103.34375 123.199219 L 102.621094 123.929688 M 107.125 125.726562 L 107.148438 128.25 L 108.148438 128.25 L 108.179688 127.523438 L 108.207031 126.800781 L 108.933594 126.800781 C 109.65625 126.800781 109.660156 126.800781 110.066406 127.226562 C 110.292969 127.457031 110.519531 127.785156 110.570312 127.949219 C 110.640625 128.175781 110.734375 128.257812 110.945312 128.28125 C 111.097656 128.300781 111.332031 128.289062 111.460938 128.257812 C 111.671875 128.203125 111.699219 128.136719 111.699219 127.714844 C 111.699219 127.332031 111.648438 127.1875 111.453125 127.003906 L 111.207031 126.769531 L 111.453125 126.476562 C 111.6875 126.199219 111.699219 126.117188 111.699219 124.960938 C 111.699219 123.75 111.695312 123.734375 111.417969 123.46875 L 111.140625 123.199219 L 107.097656 123.199219 L 107.125 125.726562 M 112.300781 125.75 L 112.300781 128.300781 L 116.238281 128.300781 L 116.800781 127.761719 L 116.800781 124.65625 L 116.078125 123.925781 L 115.355469 123.199219 L 112.300781 123.199219 L 112.300781 125.75 M 117.617188 123.429688 C 117.421875 123.640625 117.398438 123.769531 117.398438 124.773438 C 117.398438 125.855469 117.40625 125.890625 117.664062 126.09375 C 117.902344 126.28125 118.0625 126.300781 119.414062 126.300781 L 120.898438 126.300781 L 120.898438 127.199219 L 118.5 127.199219 L 118.5 126.949219 C 118.5 126.714844 118.46875 126.699219 117.949219 126.699219 L 117.398438 126.699219 L 117.398438 127.230469 C 117.398438 127.683594 117.441406 127.804688 117.679688 128.03125 L 117.960938 128.300781 L 121.414062 128.300781 L 121.707031 128.007812 C 121.992188 127.722656 122 127.683594 122 126.738281 C 122 125.8125 121.984375 125.746094 121.730469 125.480469 L 121.460938 125.199219 L 118.5 125.199219 L 118.5 124.300781 L 119.691406 124.300781 C 120.855469 124.300781 120.886719 124.304688 120.917969 124.523438 C 120.941406 124.6875 121.027344 124.757812 121.238281 124.78125 C 121.394531 124.800781 121.632812 124.789062 121.761719 124.757812 C 121.972656 124.703125 122 124.636719 122 124.21875 C 122 123.820312 121.949219 123.691406 121.71875 123.46875 L 121.4375 123.199219 L 119.636719 123.199219 C 117.882812 123.199219 117.828125 123.207031 117.617188 123.429688 M 64.300781 124.648438 L 64.300781 125.101562 L 71.199219 125.101562 L 71.199219 124.199219 L 64.300781 124.199219 L 64.300781 124.648438 M 127.5 124.648438 L 127.5 125.101562 L 134.398438 125.101562 L 134.398438 124.199219 L 127.5 124.199219 L 127.5 124.648438 M 103.472656 124.777344 C 103.195312 125.058594 103 125.347656 103 125.476562 C 103 125.695312 103.027344 125.699219 104.199219 125.699219 L 105.398438 125.699219 L 105.398438 124.300781 L 103.941406 124.300781 L 103.472656 124.777344 M 108.199219 125 L 108.199219 125.699219 L 110.601562 125.699219 L 110.601562 124.300781 L 108.199219 124.300781 L 108.199219 125 M 113.398438 125.75 L 113.398438 127.199219 L 115.699219 127.199219 L 115.699219 125.242188 L 115.222656 124.769531 C 114.746094 124.304688 114.738281 124.300781 114.070312 124.300781 L 113.398438 124.300781 L 113.398438 125.75 M 62.199219 126.449219 L 62.199219 126.898438 L 71.199219 126.898438 L 71.199219 126 L 62.199219 126 L 62.199219 126.449219 M 127.5 126.449219 L 127.5 126.898438 L 136.5 126.898438 L 136.5 126 L 127.5 126 L 127.5 126.449219 M 98.71875 135.222656 L 98.085938 136.570312 L 95.28125 136.929688 L 96.304688 137.953125 L 97.328125 138.980469 L 97.074219 140.414062 C 96.933594 141.203125 96.828125 141.855469 96.835938 141.863281 C 96.84375 141.871094 97.140625 141.710938 97.5 141.507812 C 97.859375 141.304688 98.421875 140.992188 98.753906 140.808594 L 99.355469 140.480469 L 100.632812 141.1875 C 101.53125 141.683594 101.898438 141.84375 101.863281 141.722656 C 101.839844 141.628906 101.71875 140.992188 101.597656 140.3125 L 101.375 139.078125 L 102.445312 138.003906 L 103.519531 136.929688 L 102.632812 136.816406 C 102.148438 136.753906 101.496094 136.675781 101.1875 136.640625 L 100.625 136.574219 L 99.351562 133.878906 L 98.71875 135.222656 M 87.90625 136.1875 L 87.46875 137.078125 L 86.515625 137.203125 L 85.5625 137.332031 L 86.28125 138.015625 L 86.996094 138.699219 L 86.847656 139.425781 C 86.765625 139.824219 86.675781 140.253906 86.648438 140.378906 C 86.597656 140.589844 86.652344 140.574219 87.496094 140.152344 L 88.398438 139.699219 L 89.210938 140.105469 C 89.65625 140.328125 90.039062 140.496094 90.058594 140.476562 C 90.078125 140.453125 90.019531 140.046875 89.925781 139.566406 L 89.757812 138.695312 L 90.4375 138.011719 L 91.117188 137.324219 L 89.25 137.050781 L 88.796875 136.175781 L 88.339844 135.300781 L 87.90625 136.1875 M 109.730469 136.234375 L 109.316406 137.070312 L 108.394531 137.195312 L 107.476562 137.320312 L 108.152344 138.003906 L 108.832031 138.683594 L 108.65625 139.550781 C 108.5625 140.027344 108.507812 140.441406 108.53125 140.464844 C 108.558594 140.492188 108.945312 140.328125 109.390625 140.105469 L 110.199219 139.699219 L 111.085938 140.140625 L 111.96875 140.585938 L 111.777344 139.628906 L 111.582031 138.671875 L 112.925781 137.320312 L 111.082031 137.070312 L 110.667969 136.234375 C 110.441406 135.777344 110.230469 135.398438 110.199219 135.398438 C 110.167969 135.398438 109.957031 135.777344 109.730469 136.234375 "/>
</g>
</svg>
